<svg xmlns="http://www.w3.org/2000/svg" viewBox="0 0 71.62 65">
  <path fill="#e36a6b" d="m71.21,41l-9.1-21.24c-.39-.92-1.05-1.7-1.89-2.25-.84-.55-1.82-.84-2.82-.84h-4.14c-.21-4.49-2.15-8.72-5.39-11.82C44.62,1.74,40.3,0,35.81,0c-4.65-.01-9.11,1.84-12.37,5.15v-2.59c0-.91-.49-1.76-1.28-2.22-.79-.46-1.77-.46-2.56,0-.79.46-1.28,1.3-1.28,2.22v8.97c0,.68.27,1.33.75,1.81.48.48,1.13.75,1.81.75h8.95c.91,0,1.76-.49,2.21-1.28.46-.79.46-1.77,0-2.56-.46-.79-1.3-1.28-2.21-1.28h-2.97c2.21-2.33,5.25-3.71,8.47-3.83,3.22-.12,6.35,1.01,8.74,3.17,2.39,2.16,3.84,5.16,4.05,8.37H14.22c-1,0-1.98.29-2.82.84-.84.55-1.49,1.34-1.89,2.26L1.15,39.29C.39,41.05,0,42.96,0,44.88v12.45C0,59.36.81,61.31,2.25,62.75c1.44,1.44,3.39,2.25,5.43,2.25h56.27c2.04,0,3.99-.81,5.43-2.25,1.44-1.44,2.25-3.39,2.25-5.43v-14.31c0-.69-.14-1.38-.41-2.01Z"/>
  <path fill="#fff" d="m62.1,19.76c-.4-.92-1.05-1.7-1.89-2.25-.84-.55-1.82-.84-2.82-.84h-4.14c-.21-4.48-2.15-8.72-5.39-11.82C44.62,1.74,40.3,0,35.81,0c-4.65-.01-9.11,1.84-12.37,5.15v-2.59c0-.91-.49-1.76-1.28-2.22-.79-.46-1.77-.46-2.56,0-.79.46-1.28,1.3-1.28,2.22v8.97c0,.68.27,1.33.75,1.81.48.48,1.13.75,1.81.75h8.95c.91,0,1.76-.49,2.22-1.28s.46-1.77,0-2.56c-.46-.79-1.3-1.28-2.22-1.28h-2.97c2.22-2.33,5.25-3.71,8.47-3.83,3.21-.12,6.35,1.01,8.74,3.17,2.39,2.15,3.84,5.16,4.05,8.37H14.22c-1,0-1.98.29-2.82.84-.84.55-1.49,1.34-1.89,2.26L1.15,39.29C.39,41.05,0,42.96,0,44.88v12.45c0,2.03.81,3.99,2.25,5.43,1.44,1.44,3.39,2.25,5.43,2.25h56.27c2.04,0,3.99-.81,5.43-2.25,1.44-1.44,2.25-3.39,2.25-5.43v-14.31c0-.69-.14-1.38-.41-2.01l-9.1-21.24Zm-47.88,2.02h33.15c-1.02,2.8-3.03,5.13-5.63,6.56-2.61,1.44-5.65,1.88-8.56,1.25-2.91-.63-5.49-2.29-7.28-4.67-.55-.73-1.45-1.11-2.35-1-.91.11-1.69.69-2.05,1.53-.36.84-.24,1.81.31,2.54,2.65,3.54,6.55,5.94,10.9,6.72,4.35.78,8.84-.12,12.56-2.52,3.72-2.4,6.38-6.12,7.46-10.41h4.66l7.78,18.16H6.44l7.79-18.16Zm52.28,27.37v8.19c0,.68-.27,1.33-.75,1.81s-1.13.75-1.81.75H7.67c-.68,0-1.33-.27-1.81-.75s-.75-1.13-.75-1.81v-12.28h61.39v4.09Z"/>
</svg>