<svg xmlns="http://www.w3.org/2000/svg" viewBox="0 0 705.48 652.4">
  <path fill="#e34f50" d="m595.21,56.77c-10.44,0-20.54,1.72-30.13,4.86C545.39,23.66,509.86,0,470.51,0c-60.8,0-110.27,57.04-110.27,127.15h33.48c0-51.65,34.46-93.68,76.79-93.68,26.61,0,50.94,16.77,64.91,43.7-30.34,22.67-50.47,62.04-50.47,106.75h33.48c0-25.53,8.32-49.43,23.43-67.26,14.43-17.04,33.39-26.42,53.36-26.42,42.35,0,76.79,42.03,76.79,93.68v1.19s.01.07.01.07v432.41s-141.89,0-141.89,0v-192.5s22.95-14.15,22.95-14.15l-117.36-190.52-3.26-5.29-5.58-2.74-140.84-69.13-9.49-4.67-9.49,4.67-140.84,69.28-5.57,2.75-3.26,5.28L0,411.11l23.67,14.57v226.72s43.04,0,43.04,0v-265.17s-1.44,0-1.44,0l85.51-138.8,125.78-61.88,125.77,61.73,84.77,137.59v265.16s21.89,0,21.89,0v.03s179.78,0,179.78,0h16.73s0-16.75,0-16.75V184s0-1.19,0-1.19l-.03-.29c-.65-69.47-49.84-125.75-110.24-125.75Z"/>
</svg>