<svg xmlns="http://www.w3.org/2000/svg" viewBox="0 0 238.15 47.69">
  <path fill="#fff" d="m58.89,19.16v-.03c0-3.7,2.77-6.76,6.61-6.76,2.11,0,3.46.69,4.67,1.7.15.13.3.34.3.59,0,.4-.36.73-.75.73-.21,0-.37-.09-.49-.17-1.01-.9-2.15-1.5-3.75-1.5-2.9,0-5.06,2.35-5.06,5.36v.04c0,3.02,2.19,5.4,5.06,5.4,1.62,0,2.77-.56,3.89-1.59.11-.11.28-.21.47-.21.37,0,.71.33.71.71,0,.23-.11.41-.24.53-1.29,1.18-2.71,1.92-4.86,1.92-3.77,0-6.56-2.97-6.56-6.72Zm13.15,5.75v-11.58c0-.41.34-.75.73-.75h8.12c.38,0,.67.31.67.67s-.3.68-.67.68h-7.37v4.46h6.53c.38,0,.67.32.67.68,0,.38-.3.67-.67.67h-6.53v4.58h7.47c.38,0,.67.3.67.67s-.3.67-.67.67h-8.21c-.39,0-.73-.34-.73-.75Zm11.3-11.67c0-.41.34-.75.73-.75.41,0,.75.34.75.75v11.05h6.78c.38,0,.67.32.67.69s-.29.67-.67.67h-7.53c-.39,0-.73-.34-.73-.75v-11.67Zm10.35,0c0-.41.33-.75.72-.75s.75.34.75.75v11.05h6.78c.37,0,.67.32.67.69s-.3.67-.67.67h-7.53c-.39,0-.72-.34-.72-.75v-11.67Zm14.72.09c0-.41.34-.75.73-.75h4.17c2.95,0,4.89,1.57,4.89,4.15v.04c0,2.82-2.35,4.28-5.13,4.28h-3.17v3.96c0,.41-.34.74-.75.74s-.73-.33-.73-.74v-11.67Zm4.71,6.37c2.17,0,3.59-1.16,3.59-2.88v-.04c0-1.87-1.4-2.84-3.51-2.84h-3.3v5.76h3.23Zm6.55-6.47c0-.41.34-.75.73-.75s.75.34.75.75v5.15h7.54v-5.15c0-.41.34-.75.75-.75.39,0,.73.34.73.75v11.77c0,.41-.34.74-.73.74-.41,0-.75-.33-.75-.74v-5.23h-7.54v5.23c0,.41-.34.74-.75.74s-.73-.33-.73-.74v-11.77Zm12.4,5.92v-.03c0-3.61,2.71-6.76,6.69-6.76s6.65,3.12,6.65,6.72v.04c0,3.6-2.71,6.76-6.69,6.76s-6.65-3.12-6.65-6.72Zm11.8,0v-.03c0-2.97-2.17-5.4-5.16-5.4s-5.12,2.39-5.12,5.36v.04c0,2.97,2.17,5.4,5.16,5.4s5.12-2.39,5.12-5.36Zm3.43-5.9c0-.39.33-.72.72-.72h.21c.34,0,.54.16.75.42l7.94,10.12v-9.86c0-.39.32-.73.73-.73s.71.34.71.73v11.81c0,.39-.28.69-.67.69h-.08c-.32,0-.54-.18-.77-.45l-8.11-10.36v10.12c0,.39-.32.73-.73.73s-.71-.33-.71-.73v-11.77Zm13.53,11.66v-11.58c0-.41.34-.75.73-.75h8.13c.37,0,.67.31.67.67s-.3.68-.67.68h-7.38v4.46h6.54c.37,0,.67.32.67.68,0,.38-.3.67-.67.67h-6.54v4.58h7.47c.37,0,.67.3.67.67s-.31.67-.67.67h-8.22c-.39,0-.73-.34-.73-.75Zm15.69-11.58c0-.41.33-.75.73-.75h4.89c1.61,0,2.89.49,3.71,1.31.63.63,1.01,1.55,1.01,2.57v.04c0,2.15-1.46,3.4-3.49,3.79l3.25,4.18c.15.17.24.33.24.54,0,.39-.38.73-.75.73-.3,0-.52-.17-.69-.39l-3.68-4.78h-3.76v4.43c0,.41-.34.74-.74.74s-.73-.33-.73-.74v-11.67Zm5.49,5.92c1.96,0,3.36-1.01,3.36-2.69v-.04c0-1.6-1.24-2.58-3.34-2.58h-4.04v5.31h4.02Zm6.79,5.66v-11.58c0-.41.34-.75.73-.75h8.13c.37,0,.67.31.67.67s-.3.68-.67.68h-7.38v4.46h6.54c.37,0,.67.32.67.68,0,.38-.29.67-.67.67h-6.54v4.58h7.47c.37,0,.67.3.67.67s-.3.67-.67.67h-8.22c-.39,0-.73-.34-.73-.75Zm11.3-11.58c0-.41.33-.75.73-.75h4.17c2.95,0,4.89,1.57,4.89,4.15v.04c0,2.82-2.35,4.28-5.14,4.28h-3.17v3.96c0,.41-.34.74-.75.74s-.73-.33-.73-.74v-11.67Zm4.71,6.37c2.16,0,3.59-1.16,3.59-2.88v-.04c0-1.87-1.4-2.84-3.51-2.84h-3.3v5.76h3.23Zm4.54,4.98l5.3-11.6c.18-.41.47-.65.93-.65h.08c.44,0,.74.25.91.65l5.3,11.58c.06.13.1.26.1.37,0,.4-.32.71-.71.71-.35,0-.6-.24-.73-.54l-1.36-3.01h-7.17s-1.36,3.05-1.36,3.05c-.13.31-.38.5-.71.5-.37,0-.67-.3-.67-.67,0-.11.01-.24.09-.39Zm9.24-3.83l-3.01-6.69-3,6.69h6.01Zm5.12-7.62c0-.41.34-.75.73-.75.41,0,.74.34.74.75v11.77c0,.41-.33.74-.74.74-.39,0-.73-.33-.73-.74v-11.77Zm4.09.09c0-.41.34-.75.73-.75h4.9c1.61,0,2.89.49,3.71,1.31.63.63,1.01,1.55,1.01,2.57v.04c0,2.15-1.46,3.4-3.49,3.79l3.25,4.18c.15.17.24.33.24.54,0,.39-.37.73-.75.73-.3,0-.52-.17-.69-.39l-3.68-4.78h-3.75v4.43c0,.41-.34.74-.75.74-.39,0-.73-.33-.73-.74v-11.67Zm5.49,5.92c1.96,0,3.36-1.01,3.36-2.69v-.04c0-1.6-1.24-2.58-3.35-2.58h-4.03v5.31h4.01Zm-174.41,13.26h.92s2.14,6.23,2.14,6.23l2.05-6.26h.7s2.05,6.26,2.05,6.26l2.14-6.23h.89s-2.67,7.53-2.67,7.53h-.72s-2.05-6.07-2.05-6.07l-2.06,6.07h-.7s-2.67-7.53-2.67-7.53Zm12.76,5.05c.03.29.1.55.21.78.12.23.26.42.44.58.17.16.38.27.6.36.22.08.45.12.69.12.39,0,.72-.07.99-.21.27-.15.52-.33.75-.57l.51.46c-.28.31-.59.56-.95.75-.35.19-.8.28-1.33.28-.37,0-.73-.07-1.06-.21-.34-.14-.63-.34-.88-.59-.25-.25-.44-.55-.59-.92-.14-.35-.22-.74-.22-1.17,0-.4.07-.78.2-1.13.13-.36.32-.66.55-.92.24-.26.52-.47.84-.62.32-.15.68-.23,1.06-.23.4,0,.77.08,1.09.23.32.15.59.36.81.62.22.27.38.58.5.93.11.35.17.74.17,1.15v.12s0,.1,0,.16h-4.38Zm3.55-.67c-.01-.25-.07-.48-.16-.71-.09-.22-.2-.41-.35-.59-.14-.16-.32-.3-.53-.4-.21-.1-.45-.15-.72-.15-.23,0-.46.04-.67.14-.21.09-.38.22-.54.39-.15.17-.29.36-.39.59-.1.23-.17.47-.2.73h3.55Zm8.2,3.21c-.6,0-1.15-.1-1.64-.29-.5-.2-.97-.5-1.42-.9l.53-.62c.39.35.78.62,1.18.8.4.17.86.26,1.38.26.51,0,.91-.11,1.21-.36.3-.24.46-.54.46-.92v-.02c0-.17-.03-.32-.09-.46-.06-.14-.16-.27-.3-.38-.14-.12-.34-.21-.6-.31-.25-.09-.58-.18-.97-.27-.42-.09-.8-.2-1.12-.32-.32-.12-.58-.27-.79-.43-.21-.18-.36-.37-.46-.6-.1-.23-.15-.5-.15-.8v-.03c0-.29.06-.56.18-.81.12-.25.29-.46.51-.65.22-.18.48-.32.78-.42.3-.11.63-.16.98-.16.55,0,1.03.08,1.44.23.41.15.81.38,1.19.69l-.49.65c-.35-.29-.7-.5-1.05-.62-.35-.13-.72-.19-1.11-.19-.49,0-.88.11-1.16.35-.29.23-.42.52-.42.86v.02c0,.18.02.34.09.48.05.14.15.27.31.39.15.11.35.22.62.32.26.1.6.19,1.01.28.83.19,1.44.44,1.84.77.39.33.6.78.6,1.35v.02c0,.32-.06.61-.19.87-.13.26-.3.48-.52.67-.23.18-.49.33-.8.43-.31.1-.66.15-1.02.15Zm5.77,0c-.26,0-.51-.04-.76-.11-.25-.07-.47-.18-.66-.32-.19-.15-.35-.32-.46-.54-.12-.21-.18-.47-.18-.75v-.02c0-.31.06-.56.17-.79.12-.22.28-.41.49-.56.2-.15.46-.26.74-.34.29-.08.61-.12.96-.12s.67.03.93.07c.26.04.51.1.76.17v-.17c0-.49-.14-.85-.42-1.11-.29-.25-.69-.38-1.21-.38-.32,0-.62.04-.89.11-.27.07-.53.17-.79.29l-.24-.68c.3-.14.61-.26.93-.34.32-.09.68-.13,1.08-.13.78,0,1.38.2,1.78.61.38.39.58.92.58,1.62v3.38s-.81,0-.81,0v-.82c-.19.25-.45.47-.77.66-.32.19-.72.28-1.21.28Zm.17-.67c.25,0,.49-.03.71-.11.22-.07.41-.17.58-.3.17-.13.3-.29.4-.47.1-.18.14-.38.14-.6v-.51c-.2-.05-.44-.11-.7-.16-.26-.05-.56-.07-.91-.07-.51,0-.91.1-1.19.29-.28.2-.42.47-.42.81v.02c0,.17.04.33.11.46.07.14.17.25.3.34.13.09.28.16.44.21.17.05.34.07.53.07Zm3.83-4.96h.91s1.86,4.58,1.86,4.58l1.87-4.58h.89s-2.41,5.57-2.41,5.57h-.73s-2.39-5.57-2.39-5.57Zm7.31,3.1c.02.29.09.55.21.78.12.23.26.42.44.58.18.16.38.27.6.36.22.08.45.12.69.12.38,0,.71-.07.99-.21.28-.15.53-.33.75-.57l.51.46c-.28.31-.59.56-.95.75-.36.19-.8.28-1.33.28-.38,0-.73-.07-1.07-.21-.33-.14-.63-.34-.88-.59-.25-.25-.44-.55-.59-.92-.15-.35-.22-.74-.22-1.17,0-.4.06-.78.19-1.13.13-.36.32-.66.55-.92.24-.26.51-.47.84-.62.33-.15.68-.23,1.07-.23s.76.08,1.09.23c.32.15.59.36.82.62.22.27.39.58.5.93.11.35.17.74.17,1.15v.12s0,.1-.01.16h-4.38Zm3.56-.67c-.02-.25-.08-.48-.16-.71-.09-.22-.2-.41-.35-.59-.15-.16-.32-.3-.53-.4-.21-.1-.45-.15-.72-.15-.23,0-.45.04-.66.14-.21.09-.39.22-.54.39-.16.17-.29.36-.39.59-.1.23-.17.47-.19.73h3.56Zm7.96.14l-3.11-4.52h1.02s2.52,3.74,2.52,3.74l2.53-3.74h.98s-3.11,4.51-3.11,4.51v2.97s-.84,0-.84,0v-2.96Zm7.69,3.08c-.41,0-.79-.07-1.14-.22-.35-.16-.65-.36-.91-.62-.25-.27-.45-.56-.6-.9-.14-.35-.21-.72-.21-1.11v-.02c0-.4.08-.76.21-1.11.14-.35.35-.66.6-.93.26-.26.56-.47.92-.62.35-.15.74-.23,1.16-.23s.79.08,1.15.23c.36.15.66.36.91.62.26.25.46.56.6.9.14.35.22.72.22,1.11v.02c0,.39-.08.76-.23,1.11-.14.35-.35.66-.6.92-.26.26-.56.48-.92.63-.36.15-.74.22-1.15.22Zm.02-.73c.29,0,.57-.06.82-.17.25-.11.46-.27.64-.46.18-.19.32-.41.42-.67.1-.26.15-.53.15-.83v-.02c0-.29-.05-.58-.16-.84-.1-.26-.24-.49-.43-.68-.18-.2-.4-.35-.64-.46-.25-.11-.52-.17-.82-.17s-.57.05-.82.17c-.25.12-.46.27-.64.46-.18.19-.31.42-.41.68-.1.26-.15.53-.15.83v.02c0,.3.05.58.16.84.1.26.24.49.43.68.18.19.4.34.64.46.25.12.53.17.82.17Zm6.39.72c-.33,0-.63-.05-.89-.16-.26-.11-.48-.26-.66-.46-.18-.2-.32-.43-.42-.69-.09-.28-.14-.57-.14-.9v-3.43s.82,0,.82,0v3.22c0,.51.13.91.4,1.21.26.3.64.45,1.13.45.24,0,.46-.04.66-.13.2-.08.38-.2.52-.35.15-.16.26-.34.35-.55.09-.22.12-.45.12-.7v-3.16s.81,0,.81,0v5.52s-.81,0-.81,0v-.96c-.19.3-.43.55-.73.77-.3.21-.69.32-1.17.32Zm4.55-5.64h.82s0,1.44,0,1.44c.1-.23.23-.44.38-.63.14-.2.32-.36.51-.5.19-.15.4-.25.63-.32.23-.07.48-.11.74-.09v.88s-.06,0-.06,0c-.3,0-.59.05-.85.16-.27.11-.5.27-.7.49-.2.21-.36.48-.47.79-.12.32-.17.68-.17,1.09v2.2s-.82,0-.82,0v-5.52Zm7.67-1.96h.86s2.72,4.08,2.72,4.08l2.72-4.08h.85s0,7.48,0,7.48h-.84s0-6.06,0-6.06l-2.72,4.01h-.05s-2.72-4-2.72-4v6.05s-.82,0-.82,0v-7.48Zm11.66,7.61c-.41,0-.79-.07-1.14-.22-.35-.16-.65-.36-.91-.62-.26-.27-.46-.56-.6-.9-.14-.35-.21-.72-.21-1.11v-.02c0-.4.07-.76.21-1.11.14-.35.34-.66.6-.93.25-.26.56-.47.92-.62.35-.15.74-.23,1.16-.23s.8.08,1.15.23c.35.15.65.36.91.62.26.25.45.56.6.9.14.35.21.72.21,1.11v.02c0,.39-.07.76-.22,1.11-.15.35-.34.66-.61.92-.26.26-.56.48-.92.63-.36.15-.74.22-1.16.22Zm.02-.73c.3,0,.57-.06.82-.17.25-.11.47-.27.64-.46.18-.19.31-.41.42-.67.1-.26.15-.53.15-.83v-.02c0-.29-.05-.58-.15-.84-.1-.26-.25-.49-.44-.68-.18-.2-.4-.35-.65-.46-.25-.11-.52-.17-.81-.17s-.57.05-.82.17c-.25.12-.46.27-.64.46-.17.19-.31.42-.41.68-.1.26-.15.53-.15.83v.02c0,.3.05.58.15.84.1.26.25.49.43.68.18.19.39.34.64.46.25.12.52.17.81.17Zm7.3.72c-.26,0-.49-.03-.7-.09-.22-.06-.41-.15-.58-.26-.17-.11-.32-.23-.47-.37-.14-.15-.26-.3-.36-.45v1.06s-.83,0-.83,0v-7.8s.83,0,.83,0v3.38c.11-.16.24-.32.38-.47.14-.15.29-.28.47-.39.17-.11.36-.2.57-.26.21-.07.44-.11.7-.11.33,0,.65.07.97.2.31.13.6.31.85.56.25.24.45.54.6.9.15.36.22.76.22,1.22v.02c0,.45-.07.85-.22,1.21-.15.36-.35.66-.6.9-.24.25-.52.44-.84.57-.31.13-.64.2-.98.2Zm-.15-.74c.26,0,.51-.05.75-.14.24-.09.44-.24.62-.41.18-.18.32-.41.42-.67.1-.27.15-.56.15-.9v-.02c0-.33-.05-.62-.15-.89-.11-.27-.24-.49-.42-.68-.18-.18-.39-.33-.62-.43-.24-.1-.49-.15-.75-.15s-.5.06-.74.16c-.24.1-.45.25-.64.44-.19.19-.34.41-.45.67-.11.26-.17.54-.17.86v.02c0,.32.06.61.17.88.11.26.26.49.45.67.19.18.4.33.64.44.25.1.48.15.74.15Zm4.33-7.02h.94s0,.91,0,.91h-.94s0-.91,0-.91Zm.05,2.12h.82s0,5.52,0,5.52h-.82s0-5.52,0-5.52Zm2.81-2.28h.82s0,7.8,0,7.8h-.82s0-7.8,0-7.8Zm3.23,5.37c.03.29.1.55.21.78.12.23.26.42.44.58.18.16.38.27.6.36.22.08.46.12.69.12.39,0,.71-.07.99-.21.27-.15.52-.33.75-.57l.52.46c-.28.31-.6.56-.95.75-.36.19-.8.28-1.33.28-.38,0-.73-.07-1.07-.21-.33-.14-.63-.34-.88-.59-.25-.25-.45-.55-.59-.92-.14-.35-.22-.74-.22-1.17,0-.4.07-.78.19-1.13.13-.36.32-.66.55-.92.24-.26.51-.47.84-.62.32-.15.68-.23,1.06-.23.41,0,.77.08,1.09.23.32.15.6.36.81.62.22.27.39.58.5.93.11.35.18.74.18,1.15v.12s0,.1-.01.16h-4.38Zm3.56-.67c-.02-.25-.08-.48-.16-.71-.08-.22-.19-.41-.35-.59-.15-.16-.32-.3-.53-.4-.21-.1-.46-.15-.73-.15-.24,0-.46.04-.66.14-.21.09-.39.22-.55.39-.16.17-.29.36-.39.59-.1.23-.17.47-.2.73h3.56Zm5.62-4.38h.84s0,6.7,0,6.7h4.21s0,.78,0,.78h-5.05s0-7.48,0-7.48Zm6.49-.16h.94s0,.91,0,.91h-.94s0-.91,0-.91Zm.05,2.12h.83s0,5.52,0,5.52h-.83s0-5.52,0-5.52Zm3.05.72h-.76s0-.72,0-.72h.76v-.48c0-.62.16-1.1.48-1.42.28-.29.68-.43,1.19-.43.19,0,.36.02.5.04.14.02.27.06.41.11v.72c-.15-.05-.29-.08-.41-.11-.12-.02-.25-.03-.4-.03-.64,0-.96.39-.96,1.17v.45h1.75s0,.7,0,.7h-1.74v4.8s-.82,0-.82,0v-4.8Zm4.1,2.37c.03.29.1.55.22.78.12.23.26.42.44.58.18.16.38.27.6.36.22.08.45.12.69.12.39,0,.72-.07.99-.21.27-.15.52-.33.75-.57l.51.46c-.28.31-.6.56-.95.75-.35.19-.8.28-1.32.28-.38,0-.73-.07-1.07-.21-.34-.14-.63-.34-.88-.59-.25-.25-.45-.55-.6-.92-.14-.35-.22-.74-.22-1.17,0-.4.07-.78.2-1.13.14-.36.32-.66.56-.92.23-.26.51-.47.84-.62.32-.15.68-.23,1.06-.23s.77.08,1.09.23c.32.15.59.36.81.62.23.27.39.58.5.93.12.35.17.74.17,1.15v.12s0,.1,0,.16h-4.39Zm3.56-.67c-.03-.25-.08-.48-.16-.71-.08-.22-.2-.41-.34-.59-.14-.16-.33-.3-.54-.4-.21-.1-.45-.15-.72-.15-.24,0-.46.04-.66.14-.21.09-.39.22-.54.39-.16.17-.29.36-.39.59-.1.23-.17.47-.2.73h3.56Zm2.69-3.93h-1.06s0-.45,0-.45h2.58s0,.45,0,.45h-1.06v2.84s-.47,0-.47,0v-2.84Zm2.25-.45h.5s1.17,1.81,1.17,1.81l1.16-1.81h.49s0,3.29,0,3.29h-.46s0-2.52,0-2.52l-1.17,1.79h-.07s-1.16-1.79-1.16-1.79v2.52s-.47,0-.47,0v-3.29Z"/>
  <path fill="#e53534" d="m47.69,23.85c0,13.17-10.67,23.84-23.85,23.84C10.68,47.69,0,37.02,0,23.85S10.68,0,23.84,0c13.17,0,23.85,10.67,23.85,23.85Z"/>
  <polygon fill="#fff" points="40.76 18.75 28.94 18.75 28.94 6.93 18.75 6.93 18.75 18.75 6.93 18.75 6.93 28.94 18.75 28.94 18.75 40.76 28.94 40.76 28.94 28.94 40.76 28.94 40.76 18.75"/>
  <path fill="#414245" d="m14.46,27.93c-.52,0-1.01-.09-1.48-.29-.46-.19-.86-.45-1.2-.78-.34-.34-.61-.74-.81-1.2-.2-.46-.29-.97-.29-1.51v-.02c0-.53.1-1.03.29-1.49.19-.46.46-.87.81-1.21.34-.35.74-.61,1.22-.81.47-.19.99-.29,1.54-.29.38,0,.72.03,1.03.11.3.08.59.18.84.32.26.13.48.29.69.49.21.18.39.39.55.62l-1.53,1.18c-.21-.27-.44-.48-.69-.63-.25-.16-.56-.23-.91-.23-.26,0-.49.05-.7.15-.21.1-.4.24-.55.42-.16.18-.28.38-.37.62-.08.24-.13.49-.13.75v.02c0,.27.05.53.13.77.09.24.21.45.37.62.15.17.33.31.55.42.21.1.45.16.7.16.19,0,.36-.03.52-.07.16-.05.3-.1.43-.18.13-.08.25-.18.37-.28.11-.11.23-.23.34-.36l1.53,1.09c-.17.24-.36.46-.57.66-.21.19-.44.37-.7.52-.26.15-.55.26-.88.35-.32.08-.69.12-1.09.12Zm4.11-7.47h3.14c.46,0,.87.05,1.25.18.37.11.7.28.96.5.27.22.47.49.62.81.14.32.21.68.21,1.09v.02c0,.44-.08.81-.23,1.14-.16.33-.37.6-.65.83-.28.22-.61.39-1,.5-.39.11-.81.17-1.26.17h-1.01v2.09s-2.03,0-2.03,0v-7.32Zm2.99,3.64c.36,0,.65-.08.85-.25.21-.17.31-.41.31-.7v-.02c0-.32-.1-.55-.31-.72-.2-.17-.49-.24-.86-.24h-.95v1.94h.96Zm4.05-3.64h3.46c.56,0,1.04.07,1.43.21.39.14.71.33.95.59.43.42.65.98.65,1.71v.02c0,.57-.14,1.04-.41,1.41-.27.37-.64.65-1.1.85l1.75,2.55h-2.34s-1.48-2.22-1.48-2.22h-.02s-.87,0-.87,0v2.22s-2.03,0-2.03,0v-7.32Zm3.37,3.52c.35,0,.61-.08.81-.24.19-.16.28-.37.28-.63h0c0-.31-.1-.53-.29-.68-.19-.14-.46-.21-.8-.21h-1.33v1.76h1.34Zm6.03.41c-.31,0-.6-.06-.86-.18-.27-.12-.5-.28-.7-.48-.2-.2-.36-.44-.47-.7-.11-.27-.17-.55-.17-.84v-.02c0-.31.05-.59.17-.86.12-.27.27-.5.47-.71.2-.2.43-.37.7-.48.28-.12.57-.17.87-.17s.6.05.87.17c.27.12.5.28.7.48.2.2.35.43.47.7.12.27.17.55.17.85v.02c0,.3-.06.58-.17.85-.11.27-.27.51-.47.7-.2.21-.43.37-.7.49-.27.11-.56.18-.87.18Zm0-.25c.28,0,.54-.05.78-.15.24-.11.44-.25.62-.43.18-.18.32-.39.41-.63.1-.24.15-.5.15-.77v-.02c0-.27-.05-.52-.15-.76-.1-.24-.24-.45-.4-.63-.18-.18-.39-.32-.62-.42-.24-.11-.5-.16-.77-.16s-.54.05-.78.16c-.24.1-.45.24-.62.42-.17.18-.31.39-.41.63-.1.24-.15.5-.15.77v.02c0,.26.05.51.15.76.1.24.24.45.41.63.17.18.38.31.62.42.24.1.49.15.77.15Zm-.97-3.21h1.1c.18,0,.34.02.48.07.13.05.23.11.32.19.14.13.2.31.2.54h0c0,.19-.05.34-.13.46-.09.12-.2.21-.35.27l.56.82h-.75s-.48-.71-.48-.71h-.01s-.28,0-.28,0v.71s-.65,0-.65,0v-2.34Zm1.08,1.13c.11,0,.2-.03.26-.07.06-.05.09-.12.09-.21h0c0-.1-.03-.18-.1-.22-.06-.05-.15-.07-.26-.07h-.42v.56h.43Z"/>
</svg>