<svg xmlns="http://www.w3.org/2000/svg" viewBox="0 0 367.03 45">
  <polygon fill="d84040" points="0 45 14.24 45 14.24 38.89 7.9 38.89 7.9 6.11 14.24 6.11 14.24 0 0 0 0 45"/>
  <polygon fill="d84040" points="135.3 6.11 141.71 6.11 141.71 38.89 135.3 38.89 135.3 45 149.6 45 149.6 0 135.3 0 135.3 6.11"/>
  <path fill="#fff" d="m66.54,2.92c-1.54-1.09-3.16-1.85-4.85-2.28-1.69-.43-3.14-.64-4.34-.64H16.92v45h11.31v-15.36h23.59l7.2,15.36h12.09l-7.84-16.65c1.07-.43,2.13-1.01,3.18-1.74,1.05-.73,1.99-1.64,2.83-2.73.83-1.09,1.51-2.39,2.02-3.89.51-1.5.77-3.24.77-5.21,0-3-.54-5.45-1.61-7.36-1.07-1.91-2.38-3.41-3.92-4.5Zm-6.43,14.4c-.43.67-.93,1.19-1.51,1.58-.58.39-1.15.65-1.7.8-.56.15-.97.22-1.22.22h-27.45v-10.22h27.45c.34,0,.8.06,1.38.19.58.13,1.14.38,1.7.74.56.36,1.03.88,1.41,1.54.38.67.58,1.53.58,2.6s-.21,1.88-.64,2.54Z"/>
  <path fill="#fff" d="m133.64,38.22c.77-1.56,1.16-3.46,1.16-5.69-.04-1.29-.3-2.55-.77-3.79-.38-1.07-1.01-2.18-1.86-3.31-.86-1.13-2.1-2.09-3.73-2.86,1.63-.68,2.87-1.56,3.73-2.64.86-1.07,1.48-2.14,1.86-3.21.47-1.24.73-2.55.77-3.92,0-2.27-.36-4.21-1.09-5.82-.73-1.61-1.74-2.92-3.02-3.95-1.28-1.03-2.83-1.79-4.63-2.28-1.8-.49-3.77-.74-5.92-.74h-42.17v45h42.17c2.06,0,3.98-.24,5.75-.71,1.78-.47,3.32-1.21,4.63-2.22,1.31-1.01,2.35-2.29,3.12-3.86Zm-10.35-4.66c-.43.6-.92,1.05-1.48,1.35-.56.3-1.11.49-1.64.58-.54.09-.93.13-1.19.13h-29.7v-8.93h29.7c.34,0,.79.04,1.35.13.56.09,1.1.28,1.64.58.54.3,1,.75,1.38,1.35.39.6.58,1.41.58,2.44s-.21,1.78-.64,2.38Zm0-17.36c-.43.6-.92,1.06-1.48,1.38-.56.32-1.11.52-1.64.61-.54.09-.93.13-1.19.13h-29.7v-8.94h29.7c.34,0,.79.04,1.35.13.56.09,1.1.27,1.64.55.54.28,1,.72,1.38,1.32.39.6.58,1.41.58,2.44s-.21,1.78-.64,2.38Z"/>
  <path fill="#fff" d="m159.71,22.23c0-4.42,3.38-7.61,7.93-7.61,2.41,0,4.48.87,5.86,2.47l-1.78,1.67c-1.08-1.16-2.41-1.73-3.95-1.73-3.07,0-5.29,2.16-5.29,5.2s2.22,5.2,5.29,5.2c1.54,0,2.88-.57,3.95-1.76l1.78,1.69c-1.37,1.61-3.45,2.47-5.88,2.47-4.53,0-7.91-3.19-7.91-7.61Z"/>
  <path fill="#fff" d="m194.29,29.63l-3.02-4.34c-.19.02-.38.02-.57.02h-3.34v4.31h-2.75v-14.8h6.09c3.89,0,6.3,1.99,6.3,5.27,0,2.24-1.14,3.89-3.15,4.67l3.41,4.86h-2.96Zm-3.72-12.48h-3.21v5.9h3.21c2.41,0,3.66-1.1,3.66-2.96s-1.25-2.94-3.66-2.94Z"/>
  <path fill="#fff" d="m219.62,27.33v2.31h-11.1v-14.8h10.81v2.31h-8.06v3.85h7.15v2.26h-7.15v4.08h8.35Z"/>
  <path fill="#fff" d="m240.76,26.21h-7.4l-1.46,3.43h-2.83l6.66-14.8h2.71l6.68,14.8h-2.88l-1.48-3.43Zm-.91-2.16l-2.79-6.47-2.77,6.47h5.56Z"/>
  <path fill="#fff" d="m257.72,17.16h-4.91v-2.33h12.56v2.33h-4.91v12.48h-2.75v-12.48Z"/>
  <path fill="#fff" d="m275.91,14.83h2.75v14.8h-2.75v-14.8Z"/>
  <path fill="#fff" d="m304.55,14.83l-6.45,14.8h-2.71l-6.47-14.8h2.98l4.93,11.42,4.97-11.42h2.75Z"/>
  <path fill="#fff" d="m360.6,3.35c.52-.52,1.37-.52,1.89,0l2.37,2.37c.52.52.52,1.37,0,1.89l-3.04,3.05-4.26-4.26,3.05-3.05Zm-4.31,4.31l4.26,4.26-12.19,12.19v-.7c0-.49-.4-.89-.89-.89h-1.78v-1.78c0-.49-.4-.89-.89-.89h-.7l12.19-12.19Zm-13.99,14.61c.07-.22.15-.44.26-.64h1.36v1.78c0,.49.4.89.89.89h1.78v1.36c-.21.11-.42.19-.65.26l-5.16,1.52,1.52-5.16h0Zm21.45-20.18c-1.22-1.22-3.19-1.22-4.41,0l-17.41,17.4c-.63.63-1.1,1.41-1.35,2.27l-1.98,6.73c-.09.31,0,.65.22.88.23.23.57.32.88.22l6.73-1.98c.86-.25,1.64-.72,2.27-1.35l17.4-17.4c1.22-1.22,1.22-3.19,0-4.41l-2.37-2.37Zm-6.74,10.33c.34-.34.34-.91,0-1.26s-.91-.34-1.26,0l-7.12,7.12c-.34.34-.34.91,0,1.26s.91.34,1.26,0l7.12-7.12h0Z"/>
  <path fill="#fff" d="m338.02,29.6c-.17-.03-.23-.08-.37-.22-.23-.23-.32-.57-.22-.88l.34-1.17h-20.44v-4.08h7.15v-2.26h-7.15v-3.85h8.06v-2.31h-10.81v14.8h11.1l12.34-.04Z"/>
</svg>