<svg xmlns="http://www.w3.org/2000/svg" viewBox="0 0 102.95 65">
  <path fill="#e36a6b" d="m101.5,30.36c-.91-.91-2.19-1.45-3.49-1.45h-4.1V9.62c0-5.3-4.31-9.62-9.62-9.62H27.69c-5.3,0-9.62,4.32-9.62,9.62v4.84H7.77c-2.08,0-4.03.8-5.49,2.27-1.47,1.47-2.28,3.42-2.28,5.49v35.01c0,2.07.81,4.02,2.28,5.49,1.47,1.47,3.41,2.28,5.49,2.28h20.54c2.08,0,4.03-.81,5.49-2.28,1.47-1.47,2.28-3.42,2.28-5.49v-6.69h8.16l-2.33,10.91h-3.99c-.97,0-1.78.8-1.78,1.78s.8,1.78,1.78,1.78h36.14c.97,0,1.77-.8,1.77-1.78s-.79-1.78-1.77-1.78h-3.99l-2.33-10.91h13.58v9.52c0,1.32.52,2.56,1.45,3.49.92.92,2.19,1.46,3.5,1.46h11.74c1.3,0,2.57-.53,3.49-1.46.93-.92,1.45-2.17,1.45-3.49v-26.19c0-1.31-.52-2.58-1.45-3.5Z"/>
  <path fill="#fff" d="m101.5,30.37c-.92-.92-2.19-1.45-3.49-1.45h-4.09V9.62C93.91,4.32,89.59,0,84.29,0H27.69C22.39,0,18.07,4.32,18.07,9.62v4.84H7.77c-2.08,0-4.03.81-5.49,2.27C.81,18.2,0,20.15,0,22.23v35c0,2.08.81,4.03,2.27,5.49,1.47,1.47,3.42,2.28,5.49,2.28h20.55c2.08,0,4.03-.81,5.49-2.28,1.47-1.47,2.28-3.42,2.28-5.49v-6.69h8.16l-2.34,10.91h-3.99c-.98,0-1.77.8-1.77,1.77s.8,1.77,1.77,1.77h36.14c.98,0,1.77-.8,1.77-1.77s-.8-1.77-1.77-1.77h-3.99l-2.34-10.91h13.58v9.52c0,1.32.52,2.56,1.45,3.49.92.92,2.19,1.45,3.49,1.45h11.74c1.3,0,2.58-.53,3.49-1.45.93-.93,1.45-2.17,1.45-3.49v-26.19c0-1.3-.53-2.58-1.45-3.49h0Zm-68.97,26.86c0,1.11-.45,2.2-1.24,2.98-.8.8-1.85,1.24-2.98,1.24H7.77c-1.13,0-2.18-.44-2.98-1.24-.78-.78-1.23-1.87-1.23-2.98V22.23c0-1.11.45-2.2,1.24-2.98.8-.8,1.85-1.23,2.98-1.23h20.55c1.13,0,2.18.44,2.98,1.24.78.78,1.24,1.87,1.24,2.98v35Zm13.01,4.22l2.34-10.91h16.23l2.34,10.91h-20.91Zm35.79-14.46h-45.24v-5.07h45.24v5.07Zm0-13.13v4.52h-45.24v-16.15c0-2.08-.81-4.03-2.27-5.49-1.47-1.47-3.42-2.27-5.49-2.27h-6.69v-4.84c0-3.35,2.72-6.07,6.07-6.07h56.59c3.35,0,6.07,2.72,6.07,6.07v19.29h-4.09c-1.3,0-2.58.53-3.49,1.45-.92.92-1.45,2.19-1.45,3.49h0Zm18.07,26.19c0,.37-.15.72-.41.99-.26.26-.62.41-.98.41h-11.74c-.37,0-.72-.15-.98-.41-.26-.26-.41-.61-.41-.98v-2.29h14.52v2.29Zm0-5.84h-14.52v-20.36c0-.37.15-.72.41-.98.26-.26.62-.41.98-.41h11.74c.37,0,.72.15.98.41.26.26.41.61.41.98v20.36Z"/>
  <path fill="#fff" d="m93.94,34.34h-3.61c-.98,0-1.77.8-1.77,1.77s.8,1.77,1.77,1.77h3.61c.98,0,1.77-.8,1.77-1.77s-.79-1.77-1.77-1.77Z"/>
  <path fill="#fff" d="m19.85,54.22h-3.61c-.98,0-1.77.8-1.77,1.77s.8,1.77,1.77,1.77h3.61c.98,0,1.77-.8,1.77-1.77s-.8-1.77-1.77-1.77Z"/>
</svg>