<svg xmlns="http://www.w3.org/2000/svg" viewBox="0 0 79.39 65">
  <path fill="#e36a6b" d="m76.63,41.1h-1.92c-.21-.61-.46-1.22-.75-1.79l1.36-1.37c1.08-1.08,1.08-2.82,0-3.9l-3.01-3.01c-.12-.12-.25-.23-.39-.31V6.56C71.92,2.94,68.98,0,65.37,0H6.56C2.94,0,0,2.94,0,6.56v34.49c0,3.62,2.94,6.56,6.56,6.56h34.8v.52c0,1.52,1.24,2.75,2.75,2.75h1.93c.21.62.45,1.22.75,1.8l-1.37,1.36c-.52.52-.8,1.22-.8,1.95s.28,1.42.8,1.94l3.01,3.01c1.05,1.04,2.86,1.05,3.9,0l1.37-1.36c.58.28,1.18.54,1.79.75v1.92c0,1.52,1.24,2.75,2.75,2.75h4.26c1.52,0,2.75-1.24,2.75-2.75v-1.92c.61-.21,1.21-.46,1.79-.75l1.37,1.37c1.04,1.04,2.85,1.04,3.89,0l3.02-3.02c.52-.52.8-1.21.8-1.94s-.28-1.43-.8-1.95l-1.37-1.36c.28-.58.54-1.19.75-1.8h1.92c1.52,0,2.75-1.24,2.75-2.75v-4.26c0-1.52-1.24-2.75-2.75-2.75Z"/>
  <path fill="#fff" d="m60.37,36.07c-5.47,0-9.92,4.45-9.92,9.92s4.45,9.92,9.92,9.92,9.93-4.45,9.93-9.92c0-5.47-4.45-9.92-9.93-9.92Zm0,16.61c-3.69,0-6.69-3-6.69-6.69s3-6.69,6.69-6.69,6.69,3,6.69,6.69c0,3.69-3,6.69-6.69,6.69Zm16.26-11.57h-1.93c-.21-.61-.46-1.21-.75-1.8l1.36-1.36c1.07-1.07,1.07-2.82,0-3.89l-3.01-3.01c-.12-.12-.25-.22-.39-.31V6.56c0-3.62-2.94-6.56-6.56-6.56H6.56C2.94,0,0,2.94,0,6.56v34.49c0,3.62,2.94,6.56,6.56,6.56h34.8v.51c0,1.52,1.24,2.75,2.75,2.75h1.93c.21.61.46,1.21.74,1.8l-1.36,1.36c-.52.52-.81,1.21-.81,1.95s.29,1.43.81,1.95l3.01,3.01c1.04,1.04,2.85,1.04,3.89,0l1.36-1.36c.58.29,1.18.54,1.8.74v1.93c0,1.52,1.24,2.75,2.75,2.75h4.26c1.52,0,2.75-1.24,2.75-2.75v-1.93c.61-.21,1.21-.46,1.8-.74l1.36,1.36c1.04,1.04,2.85,1.04,3.89,0l3.01-3.01c.52-.52.81-1.21.81-1.95s-.29-1.43-.81-1.95l-1.36-1.36c.29-.58.54-1.18.75-1.8h1.93c1.52,0,2.75-1.24,2.75-2.75v-4.26c0-1.52-1.24-2.75-2.76-2.75h0Zm-14.13-14.13h-4.26c-1.22,0-2.24.8-2.61,1.9l-9.58-9.67,22.16-14.32c.29.49.47,1.06.47,1.67v24.27c-.09.07-.19.13-.27.22l-1.36,1.36c-.58-.29-1.18-.54-1.8-.74v-1.93c0-1.52-1.24-2.75-2.75-2.75h0ZM3.37,41.92c-.08-.28-.13-.57-.13-.87V6.56c0-.61.18-1.17.47-1.67l22.16,14.32L3.37,41.92ZM7.11,3.24h57.71l-28.85,18.64L7.11,3.24Zm34.25,40.62v.51H6.56c-.32,0-.62-.06-.92-.14l23-23.23,6.44,4.16c.27.17.57.26.88.26s.61-.09.88-.26l6.44-4.16,11.02,11.13c-.2.09-.41.18-.61.27l-1.36-1.36c-1.04-1.04-2.85-1.04-3.89,0l-3.01,3.01c-1.07,1.07-1.07,2.82,0,3.89l1.36,1.36c-.29.58-.54,1.18-.74,1.8h-1.93c-1.52,0-2.75,1.23-2.75,2.75h0Zm34.79,3.78h-2.65c-.74,0-1.39.51-1.57,1.23-.29,1.15-.74,2.24-1.35,3.26-.38.64-.28,1.45.24,1.98l1.88,1.88-2.33,2.33-1.88-1.88c-.53-.53-1.34-.63-1.98-.24-1.02.61-2.11,1.07-3.26,1.35-.72.18-1.23.83-1.23,1.57v2.65h-3.3v-2.65c0-.74-.51-1.39-1.23-1.57-1.15-.29-2.24-.74-3.26-1.35-.64-.38-1.45-.28-1.98.24l-1.88,1.88-2.33-2.33,1.88-1.88c.53-.53.63-1.34.24-1.98-.61-1.02-1.07-2.11-1.35-3.26-.18-.72-.83-1.23-1.57-1.23h-2.65v-3.3h2.65c.74,0,1.39-.51,1.57-1.23.28-1.14.74-2.24,1.35-3.26.38-.64.28-1.45-.24-1.98l-1.88-1.88,2.33-2.33,1.88,1.88c.53.53,1.34.63,1.98.24,1.01-.61,2.11-1.07,3.26-1.35.72-.18,1.23-.83,1.23-1.57v-2.65h3.3v2.65c0,.74.51,1.39,1.23,1.57,1.14.28,2.24.74,3.26,1.35.64.38,1.45.28,1.98-.24l1.88-1.88,2.33,2.33-1.88,1.88c-.53.53-.63,1.34-.24,1.98.61,1.01,1.07,2.11,1.35,3.26.18.72.83,1.23,1.57,1.23h2.65v3.3Z"/>
</svg>