<svg xmlns="http://www.w3.org/2000/svg" viewBox="0 0 70.37 65">
  <path fill="#e36a6b" d="m67.92,35.06C67.68,16.34,52.3,0,34.77,0c-8.77,0-17.11,3.82-23.5,10.79C5.19,17.41,1.67,26.18,1.55,34.94.6,36.2,0,37.81,0,39.6,0,43.53,2.92,46.75,6.68,47.23v.83c0,3.16,2.56,5.78,5.78,5.78s5.78-2.56,5.78-5.78v-17.11c0-3.16-2.56-5.78-5.78-5.78s-5.78,2.56-5.78,5.78v.95c-.95.12-1.85.42-2.62.84C5.37,16.28,19.14,2.33,34.77,2.33s29.7,14.31,30.71,31.07c-.54-.24-1.13-.36-1.73-.48v-.9c0-3.16-2.56-5.78-5.78-5.78s-5.78,2.56-5.78,5.78v17.17c0,3.16,2.56,5.78,5.78,5.78s5.78-2.56,5.78-5.78v-.89c.42-.06.83-.18,1.25-.3v12.16c0,.36-.3.6-.6.6h-19.68c-.36-1.31-1.49-2.33-2.92-2.33h-5.31c-1.67,0-3.04,1.37-3.04,3.04v.48c0,1.67,1.37,3.04,3.04,3.04h5.25c1.25,0,2.33-.78,2.8-1.85h19.86c1.67,0,2.98-1.37,2.98-2.98v-13.48c1.85-1.37,2.98-3.58,2.98-6.02h0c0-2.21-.95-4.23-2.45-5.61Z"/>
  <path fill="#fff" d="m70.37,40.67c0-2.21-.95-4.23-2.44-5.61C67.68,16.34,52.3,0,34.77,0,26,0,17.65,3.82,11.27,10.79,5.19,17.41,1.67,26.18,1.55,34.94c-.95,1.25-1.55,2.86-1.55,4.65,0,3.94,2.92,7.16,6.68,7.63v.83c0,3.16,2.56,5.78,5.78,5.78s5.78-2.56,5.78-5.78v-17.11c0-3.16-2.56-5.78-5.78-5.78s-5.78,2.56-5.78,5.78v.95c-.95.12-1.85.42-2.62.83C5.37,16.28,19.14,2.33,34.76,2.33s29.7,14.31,30.71,31.07c-.54-.24-1.13-.36-1.73-.48v-.89c0-3.16-2.56-5.78-5.78-5.78s-5.78,2.56-5.78,5.78v17.17c0,3.16,2.56,5.78,5.78,5.78s5.78-2.56,5.78-5.78v-.89c.42-.06.83-.18,1.25-.3v12.16c0,.36-.3.6-.6.6h-19.68c-.36-1.31-1.49-2.33-2.92-2.33h-5.31c-1.67,0-3.04,1.37-3.04,3.04v.48c0,1.67,1.37,3.04,3.04,3.04h5.25c1.25,0,2.33-.78,2.8-1.85h19.86c1.67,0,2.98-1.37,2.98-2.98v-13.48c1.85-1.37,2.98-3.58,2.98-6.02h0ZM9.06,30.95c0-1.85,1.55-3.4,3.4-3.4s3.4,1.55,3.4,3.4v17.05c0,1.85-1.55,3.4-3.4,3.4s-3.4-1.55-3.4-3.4v-17.05Zm-2.39,13.89c-2.44-.48-4.29-2.68-4.29-5.25s1.85-4.77,4.29-5.25v10.5Zm54.74,4.35c0,1.85-1.55,3.4-3.4,3.4s-3.4-1.55-3.4-3.4v-17.11c0-1.85,1.55-3.4,3.4-3.4s3.4,1.55,3.4,3.4v17.11Zm-19.02,12.76c0,.36-.3.66-.66.66h-5.31c-.36,0-.66-.3-.66-.66v-.48c0-.36.3-.66.66-.66h5.31c.36,0,.66.3.66.66v.48Zm21.41-16.1v-10.44c2.39.54,4.17,2.68,4.17,5.25s-1.79,4.65-4.17,5.19Z"/>
</svg>