<svg xmlns="http://www.w3.org/2000/svg" viewBox="0 0 260.71 45">
  <polygon fill="#d84040" points="0 45 14.24 45 14.24 38.89 7.9 38.89 7.9 6.11 14.24 6.11 14.24 0 0 0 0 45"/>
  <polygon fill="#d84040" points="135.3 6.11 141.71 6.11 141.71 38.89 135.3 38.89 135.3 45 149.6 45 149.6 0 135.3 0 135.3 6.11"/>
  <path fill="#fff" d="m66.54,2.92c-1.54-1.09-3.16-1.85-4.85-2.28-1.69-.43-3.14-.64-4.34-.64H16.92v45h11.31v-15.36h23.59l7.2,15.36h12.09l-7.84-16.65c1.07-.43,2.13-1.01,3.18-1.74,1.05-.73,1.99-1.64,2.83-2.73.83-1.09,1.51-2.39,2.02-3.89.51-1.5.77-3.24.77-5.21,0-3-.54-5.45-1.61-7.36-1.07-1.91-2.38-3.41-3.92-4.5Zm-6.43,14.4c-.43.67-.93,1.19-1.51,1.58-.58.39-1.15.65-1.7.8-.56.15-.97.22-1.22.22h-27.45v-10.22h27.45c.34,0,.8.06,1.38.19.58.13,1.14.38,1.7.74.56.36,1.03.88,1.41,1.54.38.67.58,1.53.58,2.6s-.21,1.88-.64,2.54Z"/>
  <path fill="#fff" d="m133.64,38.22c.77-1.56,1.16-3.46,1.16-5.69-.04-1.29-.3-2.55-.77-3.79-.38-1.07-1.01-2.18-1.86-3.31-.86-1.13-2.1-2.09-3.73-2.86,1.63-.68,2.87-1.56,3.73-2.64.86-1.07,1.48-2.14,1.86-3.21.47-1.24.73-2.55.77-3.92,0-2.27-.36-4.21-1.09-5.82-.73-1.61-1.74-2.92-3.02-3.95-1.28-1.03-2.83-1.79-4.63-2.28-1.8-.49-3.77-.74-5.92-.74h-42.17v45h42.17c2.06,0,3.98-.24,5.75-.71,1.78-.47,3.32-1.21,4.63-2.22,1.31-1.01,2.35-2.29,3.12-3.86Zm-10.35-4.66c-.43.6-.92,1.05-1.48,1.35-.56.3-1.11.49-1.64.58-.54.09-.93.13-1.19.13h-29.7v-8.93h29.7c.34,0,.79.04,1.35.13.56.09,1.1.28,1.64.58.54.3,1,.75,1.38,1.35.39.6.58,1.41.58,2.44s-.21,1.78-.64,2.38Zm0-17.36c-.43.6-.92,1.06-1.48,1.38-.56.32-1.11.52-1.64.61-.54.09-.93.13-1.19.13h-29.7v-8.94h29.7c.34,0,.79.04,1.35.13.56.09,1.1.27,1.64.55.54.28,1,.72,1.38,1.32.39.6.58,1.41.58,2.44s-.21,1.78-.64,2.38Z"/>
  <path fill="#fff" d="m174.89,13.93v14.8h-2.75v-6.34h-7.66v6.34h-2.75v-14.8h2.75v6.11h7.66v-6.11h2.75Z"/>
  <path fill="#fff" d="m199.72,19.2c0,3.26-2.41,5.27-6.3,5.27h-3.34v4.27h-2.75v-14.8h6.09c3.89,0,6.3,1.99,6.3,5.27Zm-2.77,0c0-1.86-1.25-2.94-3.66-2.94h-3.21v5.88h3.21c2.41,0,3.66-1.08,3.66-2.94Z"/>
  <path fill="#fff" d="m210.09,21.33c0-4.42,3.38-7.61,7.93-7.61,2.41,0,4.48.87,5.86,2.47l-1.78,1.67c-1.08-1.16-2.41-1.73-3.95-1.73-3.07,0-5.29,2.16-5.29,5.2s2.22,5.2,5.29,5.2c1.54,0,2.88-.57,3.95-1.76l1.78,1.69c-1.37,1.61-3.45,2.47-5.88,2.47-4.53,0-7.91-3.19-7.91-7.61Z"/>
  <path fill="#fff" d="m252.91,15.32h-9.35c-.86,0-1.56.7-1.56,1.56v9.35c0,.86.7,1.56,1.56,1.56h9.35c.86,0,1.56-.7,1.56-1.56v-9.35c0-.86-.7-1.56-1.56-1.56Zm0,10.91h-9.35v-9.35h9.35v9.35Zm7.02-3.9c.43,0,.78-.35.78-.78s-.35-.78-.78-.78h-2.34v-3.12h2.34c.43,0,.78-.35.78-.78s-.35-.78-.78-.78h-2.34v-.78c0-1.72-1.4-3.12-3.12-3.12h-.78v-2.34c0-.43-.35-.78-.78-.78s-.78.35-.78.78v2.34h-3.12v-2.34c0-.43-.35-.78-.78-.78s-.78.35-.78.78v2.34h-3.12v-2.34c0-.43-.35-.78-.78-.78s-.78.35-.78.78v2.34h-.78c-1.72,0-3.12,1.4-3.12,3.12v.78h-2.34c-.43,0-.78.35-.78.78s.35.78.78.78h2.34v3.12h-2.34c-.43,0-.78.35-.78.78s.35.78.78.78h2.34v3.12h-2.34c-.43,0-.78.35-.78.78s.35.78.78.78h2.34v.78c0,1.72,1.4,3.12,3.12,3.12h.78v2.34c0,.43.35.78.78.78s.78-.35.78-.78v-2.34h3.12v2.34c0,.43.35.78.78.78s.78-.35.78-.78v-2.34h3.12v2.34c0,.43.35.78.78.78s.78-.35.78-.78v-2.34h.78c1.72,0,3.12-1.4,3.12-3.12v-.78h2.34c.43,0,.78-.35.78-.78s-.35-.78-.78-.78h-2.34v-3.12h2.34Zm-3.9,5.46c0,.86-.7,1.56-1.56,1.56h-12.47c-.86,0-1.56-.7-1.56-1.56v-12.47c0-.86.7-1.56,1.56-1.56h12.47c.86,0,1.56.7,1.56,1.56v12.47Z"/>
</svg>