<svg xmlns="http://www.w3.org/2000/svg" viewBox="0 0 90.44 65">
  <path fill="#e36a6b" d="m88.78,1.66C87.72.6,86.28,0,84.78,0H5.65c-1.5,0-2.94.6-4,1.66C.6,2.72,0,4.15,0,5.65v48.04c0,1.5.6,2.93,1.66,4,1.06,1.06,2.5,1.66,4,1.66h28.97v2.83h-7.07c-.78,0-1.41.63-1.41,1.41s.63,1.41,1.41,1.41h35.33c.78,0,1.41-.63,1.41-1.41s-.63-1.41-1.41-1.41h-7.07v-2.83h28.97c1.5,0,2.93-.6,4-1.66,1.06-1.06,1.66-2.5,1.66-4V5.65c0-1.5-.6-2.94-1.66-4Z"/>
  <path fill="#fff" d="m84.78,0H5.65c-1.5,0-2.94.6-3.99,1.66C.6,2.72,0,4.15,0,5.65v48.04c0,1.5.6,2.94,1.66,3.99,1.06,1.06,2.5,1.66,3.99,1.66h28.97v2.83h-7.07c-.78,0-1.41.63-1.41,1.41s.63,1.41,1.41,1.41h35.33c.78,0,1.41-.63,1.41-1.41s-.63-1.41-1.41-1.41h-7.07v-2.83h28.97c1.5,0,2.94-.6,3.99-1.66,1.06-1.06,1.66-2.5,1.66-3.99V5.65c0-1.5-.6-2.94-1.66-3.99-1.06-1.06-2.5-1.66-3.99-1.66h0Zm-31.79,62.17h-15.54v-2.83h15.54v2.83Zm31.79-5.65H5.65c-.75,0-1.47-.3-2-.83s-.83-1.25-.83-2h84.78c0,.75-.3,1.47-.83,2s-1.25.83-2,.83Zm2.83-5.65H2.83V5.65c0-.75.3-1.47.83-2s1.25-.83,2-.83h79.13c.75,0,1.47.3,2,.83s.83,1.25.83,2v45.22Z"/>
  <path fill="#fff" d="m83.37,21.19c-.78,0-1.41.63-1.41,1.41v22.61h-2.83v-15.54c0-.78-.63-1.41-1.41-1.41s-1.41.63-1.41,1.41v15.54h-2.83v-8.48c0-.78-.63-1.41-1.41-1.41s-1.41.63-1.41,1.41v8.48h-2.83v-8.48c0-.78-.63-1.41-1.41-1.41s-1.41.63-1.41,1.41v8.48h-2.83v-15.54c0-.78-.63-1.41-1.41-1.41s-1.41.63-1.41,1.41v15.54h-2.83v-22.61c0-.78-.63-1.41-1.41-1.41s-1.41.63-1.41,1.41v24.02c0,.78.63,1.41,1.41,1.41h28.26c.78,0,1.41-.63,1.41-1.41v-24.02c0-.78-.63-1.41-1.41-1.41Z"/>
  <path fill="#fff" d="m25.43,43.8c-5.92,0-11.4-3.08-14.48-8.13-3.08-5.05-3.3-11.34-.58-16.6-.87-.42-1.64-1.01-2.28-1.74-3.36,6.13-3.24,13.58.32,19.59,3.56,6.01,10.03,9.7,17.02,9.7.78,0,1.41-.63,1.41-1.41s-.63-1.41-1.41-1.41h0Z"/>
  <path fill="#fff" d="m13.42,16.96c1.12,0,2.2-.45,3-1.24s1.24-1.87,1.24-3-.45-2.2-1.24-3-1.87-1.24-3-1.24-2.2.45-3,1.24-1.24,1.87-1.24,3c0,1.12.45,2.2,1.24,3,.79.79,1.87,1.24,3,1.24h0Zm0-5.65c.57,0,1.09.34,1.31.87.22.53.1,1.14-.31,1.54s-1.01.52-1.54.31c-.53-.22-.87-.73-.87-1.31,0-.37.15-.73.41-1s.62-.41,1-.41Z"/>
  <path fill="#fff" d="m25.43,35.33c-1.99,0-3.93-.7-5.45-1.98-1.53-1.28-2.56-3.06-2.91-5.02-.35-1.96,0-3.99,1-5.71,1-1.73,2.57-3.05,4.44-3.73,1.87-.68,3.93-.68,5.8,0,1.87.68,3.45,2,4.44,3.73h3.14c-1.03-2.55-2.95-4.63-5.41-5.86-2.46-1.23-5.28-1.53-7.93-.83-2.66.7-4.97,2.34-6.5,4.62-1.53,2.28-2.19,5.04-1.84,7.76.35,2.72,1.68,5.23,3.75,7.04s4.72,2.81,7.46,2.81c.78,0,1.41-.63,1.41-1.41s-.63-1.41-1.41-1.41h0Z"/>
  <path fill="#fff" d="m25.43,9.89c3.76,0,7.41,1.26,10.38,3.56,2.97,2.3,5.1,5.52,6.04,9.16h2.9c-1.21-5.54-4.75-10.29-9.7-13.05-4.96-2.76-10.86-3.25-16.2-1.36.62.74,1.08,1.6,1.35,2.53,1.69-.55,3.46-.83,5.24-.83h0Z"/>
  <path fill="#fff" d="m46.98,25.44h-16.81c-.46-1.53-1.62-2.75-3.14-3.27-1.51-.52-3.18-.28-4.48.65-1.3.93-2.07,2.43-2.07,4.02s.77,3.1,2.07,4.02c1.3.93,2.97,1.17,4.48.65,1.51-.52,2.68-1.73,3.14-3.27h16.81c.78,0,1.41-.63,1.41-1.41s-.63-1.41-1.41-1.41h0Zm-21.55,3.53c-.86,0-1.63-.52-1.96-1.31-.33-.79-.15-1.7.46-2.31s1.52-.79,2.31-.46c.79.33,1.31,1.1,1.31,1.96,0,1.17-.95,2.12-2.12,2.12h0Z"/>
  <path fill="#fff" d="m69.24,26.85c2.81,0,5.51-1.12,7.49-3.1,1.99-1.99,3.1-4.68,3.1-7.49s-1.12-5.51-3.1-7.49c-1.99-1.99-4.68-3.1-7.49-3.1s-5.51,1.12-7.49,3.1c-1.99,1.99-3.1,4.68-3.1,7.49s1.12,5.51,3.1,7.49c1.99,1.99,4.68,3.1,7.49,3.1h0Zm0-18.37c2.06,0,4.04.82,5.5,2.28,1.46,1.46,2.28,3.43,2.28,5.5s-.82,4.04-2.28,5.5c-1.46,1.46-3.43,2.28-5.5,2.28s-4.04-.82-5.5-2.28c-1.46-1.46-2.28-3.43-2.28-5.5,0-2.06.82-4.04,2.28-5.49,1.46-1.46,3.43-2.28,5.49-2.28Z"/>
  <path fill="#fff" d="m69.24,21.19c1.31,0,2.57-.52,3.5-1.45.93-.93,1.45-2.19,1.45-3.5s-.52-2.57-1.45-3.5c-.93-.93-2.19-1.45-3.5-1.45s-2.57.52-3.5,1.45c-.93.93-1.45,2.19-1.45,3.5s.52,2.57,1.45,3.5c.93.93,2.19,1.45,3.5,1.45Zm0-7.07c.86,0,1.63.52,1.96,1.31.33.79.15,1.7-.46,2.31s-1.52.79-2.31.46c-.79-.33-1.31-1.1-1.31-1.96,0-1.17.95-2.12,2.12-2.12h0Z"/>
</svg>