<svg xmlns="http://www.w3.org/2000/svg" viewBox="0 0 596.04 140">
  <polygon fill="#d84040" points="0 140 43.35 140 43.35 121.42 24.03 121.42 24.03 21.63 43.35 21.63 43.35 3.05 0 3.05 0 140"/>
  <polygon fill="#d84040" points="552.51 21.63 572.01 21.63 572.01 121.42 552.51 121.42 552.51 140 596.04 140 596.04 3.05 552.51 3.05 552.51 21.63"/>
  <path fill="#fff" d="m153.91,9.09c-3.18-2.25-6.52-3.83-10.01-4.71-3.49-.88-6.48-1.32-8.96-1.32H51.48s0,92.87,0,92.87h23.35s0-31.71,0-31.71h48.69s14.86,31.71,14.86,31.71h24.95s-16.19-34.36-16.19-34.36c2.21-.89,4.4-2.08,6.57-3.59,2.16-1.5,4.11-3.38,5.84-5.64,1.72-2.25,3.12-4.93,4.18-8.02,1.06-3.1,1.59-6.68,1.59-10.75,0-6.19-1.11-11.25-3.32-15.19-2.21-3.94-4.91-7.03-8.09-9.29Zm-13.27,29.72c-.88,1.38-1.92,2.46-3.11,3.25-1.19.8-2.37,1.35-3.51,1.66-1.15.31-1.99.46-2.53.46h-56.65s0-21.09,0-21.09h56.65c.71,0,1.66.13,2.86.4,1.19.27,2.36.78,3.51,1.52,1.15.75,2.12,1.82,2.92,3.19.79,1.38,1.2,3.16,1.2,5.37s-.44,3.87-1.33,5.24Z"/>
  <path fill="#fff" d="m292.4,81.92c1.59-3.23,2.39-7.14,2.39-11.74-.09-2.65-.62-5.26-1.59-7.82-.79-2.21-2.08-4.49-3.85-6.84-1.77-2.34-4.33-4.31-7.69-5.9,3.36-1.41,5.92-3.23,7.69-5.44,1.77-2.21,3.05-4.42,3.85-6.63.98-2.56,1.51-5.26,1.59-8.09,0-4.69-.75-8.69-2.26-12.01-1.5-3.31-3.58-6.04-6.24-8.16-2.65-2.12-5.84-3.69-9.55-4.71-3.72-1.02-7.78-1.53-12.21-1.53h-87.03s0,92.87,0,92.87h87.03c4.25,0,8.21-.49,11.87-1.46,3.68-.98,6.85-2.5,9.55-4.58,2.7-2.08,4.84-4.73,6.44-7.96Zm-21.37-9.62c-.88,1.24-1.9,2.17-3.05,2.79-1.15.62-2.28,1.02-3.39,1.2-1.1.18-1.92.27-2.45.27h-61.3s0-18.44,0-18.44h61.3c.71,0,1.63.09,2.78.26,1.15.18,2.28.58,3.38,1.2,1.1.62,2.06,1.55,2.85,2.79.8,1.23,1.2,2.92,1.2,5.04,0,2.03-.44,3.67-1.33,4.91Zm0-35.82c-.88,1.24-1.9,2.19-3.05,2.85-1.15.66-2.28,1.08-3.39,1.26-1.1.18-1.92.27-2.45.27h-61.3s0-18.44,0-18.44h61.3c.71,0,1.63.09,2.78.27,1.15.18,2.28.55,3.38,1.13,1.1.58,2.06,1.48,2.85,2.72.8,1.24,1.2,2.92,1.2,5.04,0,2.03-.44,3.67-1.33,4.91Z"/>
  <polygon fill="#fff" points="367.32 95.92 367.32 23.08 409.12 23.08 409.12 3.05 302.32 3.05 302.32 23.08 344.1 23.08 344.1 95.92 367.32 95.92"/>
  <path fill="#fff" d="m479.93,98.98c10.17,0,19.26-1.33,27.26-3.98,8.01-2.65,14.77-6.23,20.3-10.75,5.53-4.51,9.75-9.75,12.67-15.72,2.92-5.97,4.38-12.32,4.38-19.04,0-1.14-.05-2.27-.13-3.38-.09-1.11-.22-2.19-.4-3.25h-73.24s0,18.05,0,18.05h47.37c-2.65,5.21-7.18,9.53-13.6,12.94-6.42,3.4-14.62,5.1-24.61,5.1-6.72,0-12.63-.8-17.72-2.39-5.09-1.59-9.35-3.73-12.8-6.43-3.45-2.7-6.04-5.82-7.76-9.36-1.73-3.54-2.59-7.3-2.59-11.28,0-3.98.86-7.74,2.59-11.28,1.73-3.54,4.31-6.66,7.76-9.35,3.44-2.7,7.71-4.84,12.8-6.44,5.09-1.59,10.99-2.38,17.72-2.38,9.11,0,16.63,1.48,22.55,4.44,5.93,2.96,10.3,6.66,13.14,11.08l20.56-10.48c-2.47-3.62-5.53-6.97-9.15-10.02-3.63-3.06-7.81-5.68-12.54-7.9-4.73-2.21-9.97-3.96-15.72-5.24C493.02.64,486.74,0,479.93,0c-10.18,0-19.26,1.32-27.27,3.98-8.01,2.65-14.77,6.23-20.3,10.75-5.53,4.51-9.75,9.75-12.67,15.72-2.92,5.97-4.38,12.32-4.38,19.04,0,6.72,1.46,13.07,4.37,19.04,2.92,5.97,7.14,11.21,12.67,15.72,5.53,4.51,12.29,8.09,20.3,10.75,8.01,2.66,17.09,3.98,27.27,3.98Z"/>
  <path fill="#fff" d="m64.36,124.67v-.09c3.21-1.46,4.9-4.53,4.9-7.92,0-2.74-.61-4.86-2.55-6.61-2.02-1.84-5.09-2.36-8.49-2.36-2.36,0-4.81.23-6.75.61v31.32s6.18,0,6.18,0v-12.68h.94c2.03,0,3.02,1.13,3.59,5.04.47,3.54,1.18,6.74,1.6,7.64h6.47c-.57-1.18-1.41-5.09-2.03-8.63-.61-3.44-1.7-5.43-3.86-6.32Zm-5.57-2.5h-1.13v-9.48c.33-.14.94-.18,1.51-.18,2.73.09,3.82,1.98,3.82,4.71,0,2.78-1.51,4.95-4.2,4.95Z"/>
  <polygon fill="#fff" points="79.84 125.66 87.05 125.66 87.05 120.52 79.84 120.52 79.84 113.21 87.48 113.21 87.48 107.83 73.66 107.83 73.66 139.62 88 139.62 88 134.25 79.84 134.25 79.84 125.66"/>
  <path fill="#fff" d="m98.52,107.69c-2.45,0-4.72.23-6.28.61v31.18c1.23.19,3.16.38,5.14.38,4.39,0,7.5-1.04,9.67-3.06,2.78-2.46,4.43-7.03,4.43-13.45s-1.41-10.38-4.15-12.83c-2.03-1.89-4.81-2.83-8.82-2.83Zm.99,27.13c-.33,0-.75,0-1.08-.1v-21.93c.38-.14.81-.14,1.23-.14,3.73,0,5.43,3.96,5.43,10.47,0,8.77-2.6,11.7-5.57,11.7Z"/>
  <path fill="#fff" d="m135.84,122.83v-.19c3.11-1.37,4.57-4.1,4.57-6.93,0-2.21-.7-4.34-2.4-5.75-2.22-1.89-5.09-2.27-8.07-2.27-2.64,0-5.14.19-7.03.61v31.18c1.42.23,3.4.38,5.76.38,5.33,0,8.53-1.13,10.42-3.21,1.51-1.55,2.36-3.63,2.36-6.22,0-3.54-1.93-6.56-5.61-7.59Zm-6.74-10.33c.37-.15.94-.2,1.64-.2,2.5,0,3.59,1.8,3.59,4.11,0,2.6-1.69,4.48-3.91,4.48h-1.32v-8.39Zm1.36,22.59c-.52,0-.99,0-1.36-.1v-9.53h1.32c2.45,0,4.62,1.65,4.62,4.86,0,3.2-2.02,4.76-4.58,4.76Z"/>
  <path fill="#fff" d="m150.23,107.83l-6.89,31.79h5.99s1.41-7.26,1.41-7.26h5.71s1.37,7.26,1.37,7.26h5.99s-6.18-31.79-6.18-31.79h-7.41Zm1.13,19.72l1.18-6.65c.33-1.84.8-5.09,1.13-7.22h.15c.28,2.08.7,5.29,1.03,7.22l1.04,6.65h-4.53Z"/>
  <path fill="#fff" d="m180.19,124.67v-.09c3.21-1.46,4.91-4.53,4.91-7.92,0-2.74-.61-4.86-2.55-6.61-2.02-1.84-5.09-2.36-8.49-2.36-2.35,0-4.81.23-6.74.61v31.32s6.18,0,6.18,0v-12.68h.94c2.03,0,3.02,1.13,3.59,5.04.47,3.54,1.18,6.74,1.61,7.64h6.46c-.57-1.18-1.41-5.09-2.03-8.63-.61-3.44-1.7-5.43-3.87-6.32Zm-5.57-2.5h-1.13v-9.48c.33-.14.94-.18,1.51-.18,2.74.09,3.82,1.98,3.82,4.71s-1.51,4.95-4.2,4.95Z"/>
  <path fill="#fff" d="m202.93,114.87c0,5.85.42,11.37.62,14.72h-.1c-.9-2.74-2.41-6.84-3.4-9.3l-4.91-12.45h-5.66s0,31.79,0,31.79h5.43s0-7.12,0-7.12c0-6.42-.24-11.32-.43-14.54h.1c.76,2.83,2.17,6.89,3.25,9.58l4.86,12.07h5.66s0-31.79,0-31.79h-5.42s0,7.03,0,7.03Z"/>
  <polygon fill="#fff" points="218.64 113.54 224.26 113.54 224.26 139.62 230.44 139.62 230.44 113.54 236.1 113.54 236.1 107.83 218.64 107.83 218.64 113.54"/>
  <polygon fill="#fff" points="245.53 125.66 252.75 125.66 252.75 120.52 245.53 120.52 245.53 113.21 253.17 113.21 253.17 107.83 239.36 107.83 239.36 139.62 253.69 139.62 253.69 134.25 245.53 134.25 245.53 125.66"/>
  <path fill="#fff" d="m269.6,112.97c1.37,0,2.17.28,2.88.61l1.04-5.19c-.61-.42-2.12-.85-4.3-.85-6.17,0-12.83,4.67-12.83,16.65,0,9.06,3.87,15.71,12.03,15.71,2.12,0,3.87-.33,4.76-.75l-.61-5.19c-.75.23-1.94.47-2.97.47-3.77,0-6.65-2.97-6.65-10.57,0-7.88,3.16-10.9,6.65-10.9Z"/>
  <polygon fill="#fff" points="289.22 120.57 282.76 120.57 282.76 107.83 276.58 107.83 276.58 139.62 282.76 139.62 282.76 126.32 289.22 126.32 289.22 139.62 295.4 139.62 295.4 107.83 289.22 107.83 289.22 120.57"/>
  <path fill="#fff" d="m314.32,114.87c0,5.85.42,11.37.61,14.72h-.09c-.9-2.74-2.41-6.84-3.4-9.3l-4.9-12.45h-5.66s0,31.79,0,31.79h5.42s0-7.12,0-7.12c0-6.42-.23-11.32-.43-14.54h.1c.76,2.83,2.17,6.89,3.26,9.58l4.86,12.07h5.66s0-31.79,0-31.79h-5.42s0,7.03,0,7.03Z"/>
  <path fill="#fff" d="m334.18,107.45c-7.07,0-10.51,7.5-10.51,16.18,0,8.73,2.83,16.37,10.04,16.37,6.05,0,10.3-4.86,10.3-16.84,0-7.26-2.17-15.71-9.82-15.71Zm-.23,27.17c-2.5,0-3.87-3.67-3.87-10.89,0-6.84,1.37-10.9,3.82-10.9,2.83,0,3.68,5.05,3.68,10.62,0,6.46-.99,11.17-3.63,11.17Z"/>
  <polygon fill="#fff" points="354.1 107.83 347.91 107.83 347.91 139.62 362.21 139.62 362.21 134.39 354.1 134.39 354.1 107.83"/>
  <path fill="#fff" d="m373.53,107.45c-7.07,0-10.52,7.5-10.52,16.18,0,8.73,2.83,16.37,10.04,16.37,6.04,0,10.28-4.86,10.28-16.84,0-7.26-2.16-15.71-9.81-15.71Zm-.24,27.17c-2.5,0-3.86-3.67-3.86-10.89,0-6.84,1.36-10.9,3.81-10.9,2.83,0,3.68,5.05,3.68,10.62,0,6.46-.99,11.17-3.63,11.17Z"/>
  <path fill="#fff" d="m396.37,126.84h2.88v7.69c-.24.09-.66.14-1.22.14-2.94,0-5.9-2.79-5.9-10.43,0-8.25,3.35-11.13,7.59-11.13,1.52,0,2.69.24,3.64.71l1.03-5.33c-.99-.47-2.73-.94-5.14-.94-6.84,0-13.39,4.81-13.54,16.37-.09,5.47,1.36,10.19,4.1,12.83,2.08,2.12,4.86,3.16,8.54,3.16,2.32,0,5.2-.56,6.56-1.13v-16.98s-8.54,0-8.54,0v5.05Z"/>
  <path fill="#fff" d="m418.06,115.28c-.56,2.26-1.08,4.57-1.45,6.89h-.09c-.47-2.36-1.09-4.72-1.71-6.75l-2.11-7.59h-6.61s6.99,19.62,6.99,19.62v12.17s6.18,0,6.18,0v-12.41s7.12-19.38,7.12-19.38h-6.42s-1.89,7.45-1.89,7.45Z"/>
  <path fill="#fff" d="m445.1,126.84h2.88v7.69c-.24.09-.66.14-1.22.14-2.93,0-5.9-2.79-5.9-10.43,0-8.25,3.35-11.13,7.59-11.13,1.51,0,2.69.24,3.64.71l1.04-5.33c-1-.47-2.74-.94-5.15-.94-6.84,0-13.4,4.81-13.54,16.37-.1,5.47,1.37,10.19,4.1,12.83,2.08,2.12,4.86,3.16,8.54,3.16,2.31,0,5.19-.56,6.56-1.13v-16.98s-8.54,0-8.54,0v5.05Z"/>
  <path fill="#fff" d="m471.15,124.67v-.09c3.2-1.46,4.91-4.53,4.91-7.92,0-2.74-.62-4.86-2.55-6.61-2.03-1.84-5.1-2.36-8.49-2.36-2.37,0-4.82.23-6.76.61v31.32s6.18,0,6.18,0v-12.68h.94c2.03,0,3.02,1.13,3.59,5.04.47,3.54,1.17,6.74,1.59,7.64h6.46c-.56-1.18-1.42-5.09-2.02-8.63-.61-3.44-1.71-5.43-3.87-6.32Zm-5.57-2.5h-1.13v-9.48c.33-.14.94-.18,1.51-.18,2.73.09,3.81,1.98,3.81,4.71,0,2.78-1.51,4.95-4.2,4.95Z"/>
  <path fill="#fff" d="m489.4,107.45c-7.07,0-10.52,7.5-10.52,16.18,0,8.73,2.83,16.37,10.04,16.37,6.04,0,10.29-4.86,10.29-16.84,0-7.26-2.17-15.71-9.81-15.71Zm-.23,27.17c-2.51,0-3.87-3.67-3.87-10.89,0-6.84,1.36-10.9,3.82-10.9,2.83,0,3.68,5.05,3.68,10.62,0,6.46-.99,11.17-3.63,11.17Z"/>
  <path fill="#fff" d="m515.21,128.49c0,4.81-1.27,6.08-3.06,6.08-1.66,0-3.02-1.41-3.02-6.08v-20.66s-6.19,0-6.19,0v19.62c0,7.97,2.6,12.54,9.26,12.54,6.08,0,9.19-4.43,9.19-12.6v-19.57s-6.18,0-6.18,0v20.66Z"/>
  <path fill="#fff" d="m533.19,107.69c-2.36,0-4.72.23-6.47.61v31.32s6.19,0,6.19,0v-11.84c.42.05.79.05,1.22.05,2.6,0,5.76-.95,7.74-3.08,1.65-1.74,2.69-4.19,2.69-7.63,0-2.69-.85-5.33-2.74-6.99-2.03-1.93-4.95-2.45-8.63-2.45Zm.75,15.14c-.37,0-.71,0-1.03-.04v-9.87c.37-.14.93-.23,1.51-.23,2.87,0,4,2.18,4,4.95,0,2.97-1.37,5.19-4.48,5.19Z"/>
</svg>