<svg xmlns="http://www.w3.org/2000/svg" viewBox="0 0 82.24 65">
  <path fill="#e34f50" d="m82.24,36.65c-.01-.7-.57-1.27-1.28-1.3-.77-.03-3.52-.26-6.67-2.06,0,0,0,0-.01,0-3.25-1.8-5.18-4.19-6.04-5.46-.24-.35-.64-.57-1.07-.58-.4-.03-.84.19-1.09.53-.73.97-1.64,1.96-2.68,2.89C62.97,14.71,50.55,1.67,34.79.15c-.15-.02-.3-.03-.44-.04-.11,0-.22-.02-.33-.03-.21-.02-.42-.03-.63-.04-.04,0-.08,0-.12,0-.18,0-.36-.02-.54-.02-.08,0-.17-.01-.25-.02-.1,0-.19,0-.29,0-.16,0-.33,0-.49,0-.52,0-1.04.02-1.56.04-.04,0-.08,0-.12,0-.2.01-.41.02-.61.04C17.2.96,6.89,8.72,2.4,19.48c-.02.05-.04.1-.07.16-.06.14-.12.28-.17.42-.08.2-.16.41-.23.61,0,0,0,0,0,0-1.25,3.38-1.93,7.03-1.93,10.83,0,4.4.92,8.6,2.57,12.41.02.07.04.13.07.19,4.26,9.74,13.12,16.55,23.42,18.4.04,0,.08.02.13.02.2.03.4.07.6.1.05,0,.11.02.16.02.23.04.47.07.71.1.05,0,.09.01.14.02.19.02.38.05.57.07.08,0,.16.02.23.02.18.02.36.03.55.05.06,0,.12,0,.17.01.23.02.47.03.7.05.07,0,.13,0,.2,0,.18,0,.37.02.55.02.07,0,.14,0,.21,0,.24,0,.49,0,.73,0h0c2.18,0,4.32-.22,6.4-.64,6.72-1.36,12.8-4.84,17.4-10.04.52,1.06,1.11,2.13,1.79,3.2,2.3,3.59,5.32,6.7,8.98,9.24.26.18.57.26.88.23.04,0,.08,0,.12,0,.27,0,.53-.08.76-.24,3.84-2.67,6.84-5.76,9.16-9.45,4.35-6.9,5.15-13.96,5.06-18.66Z"/>
  <path fill="#fff" d="m82.24,36.65c-.01-.7-.57-1.27-1.28-1.3-.77-.03-3.52-.26-6.67-2.06,0,0,0,0-.01,0-3.25-1.8-5.18-4.19-6.04-5.46-.24-.36-.64-.57-1.07-.58-.4-.02-.84.19-1.09.53-.73.97-1.64,1.96-2.69,2.89C62.97,14.71,50.55,1.67,34.79.15c-.15-.01-.29-.03-.44-.04-.11,0-.22-.02-.33-.03-.21-.02-.42-.03-.63-.04-.04,0-.08,0-.12,0-.18,0-.36-.02-.53-.02-.08,0-.17-.01-.25-.02-.1,0-.19,0-.29,0-.16,0-.33,0-.49,0-.52,0-1.04.01-1.56.04-.04,0-.08,0-.12,0-.2.01-.41.02-.61.04C17.2.96,6.89,8.72,2.4,19.48c-.02.05-.04.1-.06.16-.06.14-.12.28-.17.42-.08.2-.16.41-.23.61,0,0,0,0,0,0C.68,24.05,0,27.7,0,31.5,0,35.91.92,40.1,2.56,43.91c.02.07.04.13.07.19,4.26,9.74,13.11,16.55,23.42,18.4.04,0,.09.01.13.02.2.03.4.07.6.1.05,0,.11.02.16.02.23.04.47.07.71.1.05,0,.09.01.14.02.19.02.38.04.57.06.08,0,.16.02.24.02.18.02.36.03.55.05.06,0,.12.01.17.01.23.02.47.03.7.04.07,0,.13,0,.2,0,.18,0,.37.02.55.02.07,0,.14,0,.21,0,.24,0,.49,0,.73,0h0c2.18,0,4.32-.22,6.4-.64,6.72-1.36,12.8-4.84,17.4-10.04.52,1.06,1.11,2.13,1.79,3.2,2.3,3.59,5.32,6.7,8.98,9.24.26.18.57.26.88.23.04,0,.08,0,.12,0h0c.27,0,.53-.08.76-.24,3.85-2.66,6.84-5.76,9.16-9.45,4.35-6.9,5.15-13.96,5.06-18.66Zm-28.79-1.32c-.67.05-1.19.6-1.22,1.27-.06,1.44-.03,3.39.27,5.66h-10.05c.59-3.38.95-6.76,1.03-9.82.1-3.28-.06-6.68-.45-9.98h16.26c.95,2.85,1.47,5.89,1.47,9.05,0,.37,0,.75-.03,1.18-2.19,1.4-4.71,2.43-7.28,2.64Zm-27.02,24.56c-.16-.03-.32-.06-.48-.09-.05,0-.1-.02-.14-.03-8.61-1.77-15.84-7.34-19.83-14.86h15.11c1.23,6.24,3.25,11.83,5.61,15.03-.02,0-.04,0-.06-.01-.07-.01-.14-.03-.22-.04ZM2.65,31.51c0-3.16.52-6.2,1.47-9.05h16.49c-.44,2.85-.71,5.76-.76,8.58-.1,3.64.19,7.5.77,11.22H4.74c-1.35-3.32-2.09-6.95-2.09-10.74Zm38.17.85c-.09,3.36-.48,6.72-1.06,9.9h-16.46c-.58-3.58-.89-7.39-.79-11.16.04-2.8.34-5.74.81-8.63h17.01c.41,3.3.59,6.69.49,9.9Zm-9.38,27.93h-.02c-.67.03-1.38-.56-1.84-1.05-2.18-2.24-4.43-7.7-5.8-14.33h15.44c-1.96,8.7-5.29,15.38-7.78,15.38Zm-7.63-40.48c1.48-7.14,4.03-13.58,6.73-16.16.44-.42,1.08-.91,1.7-.98.05,0,.09,0,.14,0,.05,0,.11,0,.16,0,.61.08,1.22.6,1.63,1.04,2.47,2.62,4.62,8.96,5.78,16.09h-16.13Zm-2.73,0H5.16C9.25,10.71,17.81,4.35,27.61,2.95c-2.75,3.5-5.15,9.86-6.53,16.85Zm37.1,0h-15.52c-1.07-6.9-3.08-13.13-5.53-16.63,9.25,1.77,17.2,7.96,21.05,16.63Zm-22.12,40.23c2.54-3.31,4.57-9.05,5.86-15.13h11.02c.32,1.49.76,3.07,1.37,4.69-4.31,5.32-10.22,8.87-16.8,10.19-.48.1-.97.18-1.46.25Zm38.87-6.14c-2,3.18-4.55,5.88-7.79,8.24-3.09-2.25-5.65-4.95-7.62-8.03-.99-1.55-1.77-3.1-2.4-4.62-.03-.11-.07-.22-.13-.32-.79-1.99-1.3-3.92-1.63-5.69,0-.08-.02-.17-.04-.25-.36-2.08-.47-3.93-.47-5.4,5.1-.81,9.5-4.04,12.24-7.11,1.22,1.48,3.15,3.37,5.89,4.89,2.65,1.51,5.06,2.07,6.6,2.28-.07,4.29-1,10.22-4.65,16.01Z"/>
  <path fill="#fff" d="m65.63,50.5c-.3,0-.59-.1-.84-.3l-3.78-3.07c-.57-.46-.65-1.3-.19-1.87.46-.57,1.3-.65,1.87-.19l2.88,2.34,5.97-5.66c.53-.5,1.37-.48,1.87.05.5.53.48,1.37-.05,1.87l-6.82,6.46c-.26.24-.58.36-.91.36h0Z"/>
</svg>