<svg xmlns="http://www.w3.org/2000/svg" viewBox="0 0 66.31 65">
  <path fill="#e36a6b" d="m66.23,20.7c0-3.99-3.27-7.26-7.26-7.26h-9.15V2.91C49.82,1.31,48.51,0,46.92,0h-27.53C17.79,0,16.49,1.31,16.49,2.91v10.46H7.26c-3.99,0-7.26,3.27-7.26,7.26v21.35c0,3.99,3.27,7.26,7.26,7.26h9.22v12.85c0,1.6,1.31,2.91,2.91,2.91h27.53c1.6,0,2.91-1.31,2.91-2.91v-13.07c.22.15.44.22.73.22h8.5c3.99,0,7.26-3.27,7.26-7.26v-21.28h-.07Z"/>
  <path fill="#fff" d="m66.23,20.7c0-3.99-3.27-7.26-7.26-7.26h-9.15V2.9c0-1.6-1.31-2.9-2.9-2.9h-27.53c-1.6,0-2.9,1.31-2.9,2.9v10.46H7.26C3.27,13.36,0,16.63,0,20.63v21.35C0,45.97,3.27,49.24,7.26,49.24h9.22v12.85c0,1.6,1.31,2.9,2.9,2.9h27.53c1.6,0,2.9-1.31,2.9-2.9v-13.07c.22.15.44.22.73.22h8.5c3.99,0,7.26-3.27,7.26-7.26v-21.28s-.07,0-.07,0ZM19.39,2.9h27.53v10.46h-27.53V2.9Zm0,59.26v-22.15h27.53v22.08h-27.53s0,.07,0,.07Zm43.94-20.12c0,2.4-1.96,4.36-4.36,4.36h-8.5c-.29,0-.51.07-.73.22v-6.54h4.87c.8,0,1.45-.65,1.45-1.45s-.65-1.45-1.45-1.45H10.09c-.8,0-1.45.65-1.45,1.45s.65,1.45,1.45,1.45h6.32v6.32H7.26c-2.4,0-4.36-1.96-4.36-4.36v-21.35c0-2.4,1.96-4.36,4.36-4.36h51.71c2.4,0,4.36,1.96,4.36,4.36v21.35Z"/>
  <path fill="#fff" d="m20.19,21.06c-3.27,0-5.88,2.61-5.88,5.88s2.61,5.88,5.88,5.88,5.88-2.61,5.88-5.88-2.69-5.88-5.88-5.88h0Zm0,8.86c-1.67,0-2.98-1.31-2.98-2.98s1.31-2.98,2.98-2.98,2.98,1.31,2.98,2.98-1.38,2.98-2.98,2.98Z"/>
  <path fill="#fff" d="m40.74,53.82h-15.25c-.8,0-1.45.65-1.45,1.45s.65,1.45,1.45,1.45h15.18c.8,0,1.45-.65,1.45-1.45,0-.8-.58-1.45-1.38-1.45h0Z"/>
  <path fill="#fff" d="m40.74,45.83h-15.25c-.8,0-1.45.65-1.45,1.45s.65,1.45,1.45,1.45h15.18c.8,0,1.45-.65,1.45-1.45,0-.8-.58-1.45-1.38-1.45h0Z"/>
</svg>