<svg xmlns="http://www.w3.org/2000/svg" viewBox="0 0 1614.59 1036.67">
  <path fill="#eaeaea" d="m544.04,803.34l-.14-3.36c-127.23,2.86-245,5.82-349.05,8.44-8.68-8.43-16.26-18.47-23.55-28.12-9.95-13.17-19.26-25.51-30.59-33.19l-.29-.2-.32.06c-37.52,6.62-72.23,7.28-107.83,7.96-6.07.12-12.13.23-18.2.38l.06,2.7c6.07-.14,12.13-.25,18.19-.36,35.56-.64,70.23-1.26,107.75-7.8,10.88,7.51,20,19.59,29.72,32.48,7.43,9.85,15.16,20.1,24.1,28.73l.31.3h.38c104.15-2.5,222.06-5.31,349.46-8.02Z"/>
  <path fill="#eaeaea" d="m14.14,751.58c-1.95.05-3.48,2.36-3.41,5.16.07,2.79,1.7,5.02,3.66,4.98,1.96-.04,3.49-2.35,3.43-5.16-.07-2.8-1.71-5.03-3.67-4.98Z"/>
  <path fill="#eaeaea" d="m543.41,795.37c3.03-.08,5.62,2.69,5.77,6.18.15,3.49-2.19,6.37-5.22,6.44-3.03.06-5.6-2.7-5.75-6.18-.15-3.48,2.18-6.36,5.2-6.44Z"/>
  <polygon fill="#eaeaea" points="801.37 922.35 1097.79 927.89 1097.58 923.84 802.65 918.7 746.69 861.75 348.16 862.51 300.83 806.71 299.21 808.91 347.25 865.63 745.46 865.36 801.37 922.35"/>
  <path fill="#eaeaea" d="m1096.9,918.24c4.41.07,8.16,3.54,8.38,7.76.22,4.22-3.19,7.56-7.6,7.47-4.4-.09-8.13-3.57-8.34-7.76-.21-4.2,3.17-7.54,7.56-7.47Z"/>
  <polygon fill="#eaeaea" points="1046.19 1012.56 1440.23 1030.49 1439.98 1026 1047.69 1008.65 958.04 921.85 955.43 924.54 1046.19 1012.56"/>
  <path fill="#eaeaea" d="m1439.15,1019.79c5.38.23,9.97,4.2,10.24,8.87.26,4.67-3.91,8.25-9.29,7.99-5.37-.25-9.92-4.22-10.18-8.87-.26-4.64,3.87-8.22,9.24-7.99Z"/>
  <path fill="#eaeaea" d="m147.73,448.12l.44-.08.3-.47c11.86-19.09,24.26-39.03,36.49-61.72,113.23-23.37,230.77-47.64,365.82-76.8l-.17-3.34c-135.22,29.37-252.91,53.81-366.27,77.35l-.5.1-.31.57c-12.16,22.63-24.52,42.56-36.35,61.62-50.96,9.37-97.07,17.85-143.88,25.46l.07,2.68c46.96-7.58,93.22-16.03,144.36-25.37Z"/>
  <path fill="#eaeaea" d="m3.34,467.04c-1.94.35-3.43,2.87-3.34,5.65.09,2.77,1.73,4.75,3.67,4.41,1.94-.34,3.44-2.87,3.35-5.65-.09-2.78-1.74-4.76-3.68-4.41Z"/>
  <path fill="#eaeaea" d="m550.12,301.11c3.05-.65,5.66,1.64,5.82,5.12.16,3.48-2.18,6.82-5.24,7.45-3.04.63-5.64-1.66-5.8-5.13-.16-3.47,2.17-6.8,5.21-7.45Z"/>
  <path fill="#eaeaea" d="m351.32,664.05l390.88-31.79.44-.41c19.17-18.01,35.84-40.02,52.16-61.56,20.01-26.42,40.99-54.11,67.6-75.72,67.41-8.35,140.35-17.38,216.05-25.46l-.13-4.02c-75.93,8.2-149.07,17.35-216.64,25.8l-.54.07-.44.35c-27.15,21.98-48.36,50.03-68.59,76.77-16.07,21.24-32.49,42.95-51.22,60.67l-388.93,32.12c-8.1-5.9-15.5-14.63-22.62-23.04-13.03-15.37-26.37-31.11-43.87-29.24-60.35,4.67-118.67,11.22-172.41,17.26-34.91,3.92-69.89,7.85-103.29,11.03l.09,2.69c33.41-3.14,68.41-7.02,103.32-10.9,53.73-5.97,112.04-12.45,172.39-17.04,16.48-1.73,28.84,12.87,42.06,28.48,7.31,8.64,14.91,17.62,23.38,23.71l.33.24Z"/>
  <path fill="#eaeaea" d="m9.78,633.11c-1.95.21-3.44,2.64-3.33,5.43s1.76,4.88,3.71,4.67c1.95-.2,3.45-2.63,3.34-5.43-.1-2.79-1.77-4.88-3.72-4.67Z"/>
  <path fill="#eaeaea" d="m1077.63,459.7c4.36-.53,8.06,2.43,8.24,6.61s-3.21,7.97-7.57,8.47c-4.35.5-8.02-2.46-8.21-6.61-.19-4.15,3.18-7.94,7.53-8.47Z"/>
  <polygon fill="#eaeaea" points="320.7 631.38 620.5 602.73 681.45 525 764.48 514.96 787.28 486.63 784.71 484.37 762.89 511.51 679.96 521.65 619.06 599.41 320.57 628.31 320.7 631.38"/>
  <path fill="#eaeaea" d="m780.94,481.54c2.41-3.01,6.54-3.56,9.22-1.21,2.68,2.35,2.89,6.7.46,9.71-2.43,3.01-6.56,3.53-9.22,1.18-2.66-2.34-2.87-6.67-.46-9.68Z"/>
  <polygon fill="#eaeaea" points="588.81 497.86 662.96 487.85 710.64 426 817.73 409.47 863.07 447.66 959.9 434.16 959.71 430.3 864.4 443.7 819.02 405.56 709.11 422.66 661.48 484.54 589.91 494.29 563.97 469.85 322.91 505.18 323.04 508.25 562.89 473.39 588.81 497.86"/>
  <path fill="#eaeaea" d="m959.08,425.03c4.04-.58,7.49,2.21,7.7,6.23.2,4.02-2.93,7.72-6.97,8.28-4.04.56-7.46-2.24-7.66-6.23-.2-4,2.9-7.7,6.94-8.28Z"/>
  <path fill="#eaeaea" d="m525.64,564.5c6.54-.74,13.02-1.76,19.71-2.81,6.27-.99,12.79-2.01,19.5-2.82l-.16-3.37c-6.76.82-13.3,1.86-19.6,2.85-14.21,2.25-27.5,4.36-42.06,3.92-5.04-.89-8.55-5.86-12.26-11.11-3.85-5.45-7.81-11.07-13.95-12.09h-.32c-108.21,11.67-209.43,24.73-299.85,36.39-58.09,7.49-115.18,14.86-168.72,21.17l.09,2.68c53.55-6.24,110.65-13.54,168.75-20.96,90.38-11.55,191.54-24.47,299.67-36.01,5.05.93,8.49,5.81,12.14,10.99,3.85,5.46,7.85,11.13,14.08,12.22,7.97.26,15.51-.22,22.98-1.07Z"/>
  <path fill="#eaeaea" d="m7.96,592.89c-1.94.25-3.43,2.7-3.33,5.48.1,2.78,1.76,4.84,3.7,4.6,1.95-.24,3.44-2.7,3.34-5.49-.1-2.79-1.77-4.85-3.71-4.6Z"/>
  <path fill="#eaeaea" d="m564.14,550.99c3.08-.41,5.74,2.1,5.94,5.61.2,3.5-2.14,6.66-5.22,7.06-3.07.39-5.72-2.12-5.92-5.61-.2-3.49,2.13-6.65,5.2-7.05Z"/>
  <path fill="#eaeaea" d="m500.04,700.3c17.05-1.08,34.21-2.28,51.34-3.67l-.19-3.36c-51.57,4.26-103.48,6.82-151.77,9.21-31.39,1.55-63.04,3.12-93.01,5.07-10.48.68-17.45-10.8-24.79-22.89-2.21-3.65-4.5-7.41-6.87-10.79-2.71-3.1-5.42-6.17-8.26-5.94-89.84,7.42-175.97,14.53-255.1,22.25l.12,2.69c79.14-7.62,165.26-14.63,255.11-21.94,1.86-.15,4.2,2.51,6.46,5.08,2.23,3.19,4.48,6.91,6.67,10.51,7.38,12.17,15.05,24.83,26.8,24.08,29.96-1.91,61.6-3.44,92.99-4.95,32.29-1.56,66.19-3.19,100.53-5.36Z"/>
  <path fill="#eaeaea" d="m11.41,686.49c-1.95.17-3.44,2.57-3.33,5.36.11,2.79,1.78,4.91,3.73,4.75,1.95-.16,3.45-2.57,3.34-5.36-.11-2.8-1.79-4.92-3.74-4.75Z"/>
  <path fill="#eaeaea" d="m550.72,688.55c3.05-.2,5.65,2.47,5.8,5.97.15,3.5-2.2,6.48-5.25,6.67-3.04.19-5.63-2.49-5.78-5.97-.15-3.48,2.19-6.47,5.23-6.67Z"/>
  <polygon fill="#eaeaea" points="262.87 809.4 303.4 753.48 727.31 733.79 807.53 639.02 1080.58 617.93 1080.38 613.91 805.9 635.46 725.76 730.28 302.27 750.47 261.13 807.32 262.87 809.4"/>
  <path fill="#eaeaea" d="m1079.7,608.4c4.36-.35,8.08,2.75,8.3,6.93.21,4.18-3.16,7.84-7.52,8.17-4.35.33-8.05-2.78-8.26-6.94-.21-4.16,3.13-7.81,7.49-8.16Z"/>
  <polygon fill="#eaeaea" points="589.47 865.46 638.06 807.49 915.28 801.54 978.84 732.52 1200.99 722.95 1200.77 718.77 977.02 728.7 913.53 797.76 636.61 804.05 587.23 863.05 589.47 865.46"/>
  <path fill="#eaeaea" d="m1200.05,713.04c4.69-.22,8.7,3.13,8.93,7.47.23,4.34-3.4,8.02-8.1,8.21-4.68.19-8.65-3.15-8.88-7.47-.23-4.32,3.37-7.99,8.05-8.21Z"/>
  <polygon fill="#eaeaea" points="767.56 887.17 940.51 888.35 999.1 826.91 1162.75 824.81 1162.53 820.68 997.25 823.01 938.73 884.49 767.39 883.53 767.56 887.17"/>
  <path fill="#eaeaea" d="m1161.82,814.99c4.59-.07,8.5,3.35,8.72,7.65.22,4.3-3.32,7.82-7.91,7.87-4.57.05-8.46-3.38-8.68-7.65-.22-4.27,3.3-7.8,7.87-7.87Z"/>
  <polygon fill="#eaeaea" points="862.97 633.56 937.15 547.41 1060.84 534.59 1060.63 530.6 935.37 543.74 860.26 631.11 862.97 633.56"/>
  <path fill="#eaeaea" d="m1059.96,525.13c4.31-.46,7.99,2.53,8.2,6.68.21,4.15-3.12,7.87-7.43,8.31-4.3.44-7.95-2.56-8.16-6.69-.21-4.13,3.1-7.85,7.4-8.31Z"/>
  <path fill="#eaeaea" d="m4.42,504.17c58.98-10.22,122.68-20.98,187.87-31.99l.29-.05.25-.23c6.48-6.15,11.69-14.81,16.75-23.21,7.05-11.71,13.75-22.83,23.72-28.1,37.86-1.47,74.83-9.7,115.21-18.69,22.74-5.06,46.69-10.4,71.3-14.5l-.09-3.2c-24.66,4.14-48.65,9.51-71.41,14.61-40.36,9.04-77.3,17.31-115.07,18.8h-.21s-.2.11-.2.11c-10.72,5.56-17.98,17.64-24.96,29.25-4.88,8.12-9.91,16.48-15.99,22.35-65.09,11.07-128.68,21.89-187.56,32.17l.1,2.67Z"/>
  <path fill="#eaeaea" d="m4.35,497.79c-1.94.34-3.42,2.86-3.31,5.63.1,2.77,1.76,4.76,3.7,4.43,1.94-.33,3.43-2.85,3.33-5.63-.11-2.78-1.77-4.76-3.71-4.43Z"/>
  <path fill="#eaeaea" d="m419.25,380c2.76-.54,5.13,1.71,5.28,5.03.15,3.31-1.97,6.43-4.73,6.95-2.76.52-5.11-1.73-5.26-5.03-.15-3.3,1.96-6.41,4.71-6.95Z"/>
  <path fill="#eaeaea" d="m2.51,528.72c101.9-16.33,215.25-34.2,338.41-53.3l-.12-3.09c-123.15,19.25-236.5,37.26-338.39,53.72l.1,2.67Z"/>
  <path fill="#eaeaea" d="m340.87,479.74c2.59-.4,4.59-3.34,4.46-6.56-.13-3.22-2.35-5.49-4.94-5.07-2.59.42-4.58,3.35-4.44,6.55s2.34,5.48,4.93,5.07Z"/>
  <polygon fill="#eaeaea" points="752.95 804.19 859.73 681.79 1007.41 672.68 1007.22 668.75 858.04 678.14 750.44 801.69 752.95 804.19"/>
  <path fill="#eaeaea" d="m1006.57,663.36c4.17-.27,7.72,2.83,7.93,6.91s-3.02,7.61-7.18,7.86c-4.16.25-7.69-2.85-7.89-6.92-.2-4.07,2.99-7.58,7.15-7.85Z"/>
  <path fill="#d7d7d6" d="m194.88,510.57c71.13-11.55,147.19-23.99,229.91-37.6l-.14-3.25c-159.85,26.52-295.72,48.77-418.96,68.66l.1,2.68c59.75-9.56,122.39-19.66,189.1-30.5Z"/>
  <path fill="#d7d7d6" d="m5.7,534.66c-1.76.29-3.11,2.78-3.01,5.56.1,2.78,1.61,4.8,3.38,4.52,1.77-.28,3.12-2.77,3.02-5.56s-1.62-4.81-3.39-4.51Z"/>
  <path fill="#d7d7d6" d="m424.22,465.27c2.6-.43,4.84,1.96,4.98,5.34.14,3.38-1.85,6.46-4.46,6.88-2.6.42-4.82-1.97-4.96-5.34-.14-3.37,1.84-6.44,4.44-6.87Z"/>
  <polygon fill="#d7d7d6" points="82.27 528.11 139.44 448.43 727.49 332.93 811.78 237.82 1353.14 116.11 1352.89 111.61 810.44 234.31 726.24 329.49 138.67 445.7 81.07 526.09 82.27 528.11"/>
  <path fill="#d7d7d6" d="m1352.09,105.51c5.04-1.15,9.35,1.71,9.61,6.39.26,4.68-3.63,9.39-8.67,10.52-5.03,1.12-9.3-1.75-9.56-6.41-.26-4.66,3.6-9.36,8.62-10.5Z"/>
  <path fill="#d7d7d6" d="m1253.09.31c6.06-1.38,11.23,2.06,11.55,7.69.31,5.63-4.36,11.29-10.42,12.64-6.04,1.35-11.18-2.1-11.49-7.7-.31-5.6,4.32-11.25,10.36-12.63Z"/>
  <polygon fill="#d7d7d6" points="1258.41 7.56 1232.59 13.18 1079.18 174.13 1081.84 176.84 1234.36 17.1 1258.35 10.76 1258.41 7.56"/>
  <path fill="#d7d7d6" d="m1399.79,803.36l-.25-4.59c-157.21,2.72-305.08,5.4-436.25,7.78-44.38-36.81-87.81-70.15-132.39-104.37-23.8-18.27-48-36.84-71.48-55.34l-.43-.34-.53.02c-144.58,5.01-275.4,16.83-389.81,27.16-70.61,6.38-139.24,12.58-203.2,16.49l-.31.02-.25.27c-11.43,12.52-22.37,26.51-32.83,39.9-10.26,13.13-20.76,26.57-31.48,38.29-30.07,1.33-57.69,2.55-86.22,3.97l.11,2.7c28.62-1.38,56.32-2.57,86.5-3.86h.28s.23-.26.23-.26c10.87-11.84,21.48-25.4,31.85-38.66,10.37-13.26,21.21-27.11,32.51-39.49,63.9-3.83,132.44-9.92,202.95-16.2,114.27-10.17,244.88-21.79,389.18-26.6,23.33,18.41,47.35,36.88,70.98,55.06,44.67,34.36,88.19,67.84,132.63,104.8l.54.45h.68c131.36-2.21,279.48-4.69,436.99-7.21Z"/>
  <path fill="#d7d7d6" d="m14.37,768.9c-1.78.09-3.13,2.42-3.03,5.21s1.63,5,3.41,4.92c1.78-.08,3.14-2.41,3.04-5.22-.11-2.8-1.64-5.01-3.42-4.92Z"/>
  <path fill="#d7d7d6" d="m1398.72,792.44c5.17-.1,9.59,3.69,9.85,8.47.26,4.78-3.73,8.72-8.9,8.8-5.16.08-9.54-3.72-9.8-8.48-.26-4.75,3.69-8.69,8.85-8.79Z"/>
  <polygon fill="#d7d7d6" points="849.59 839.52 851.56 836.46 806.39 799.85 668.26 802.83 561.58 711.75 126.89 737.28 127 740.13 560.77 715.25 667.39 806.44 805.42 803.65 849.59 839.52"/>
  <path fill="#d7d7d6" d="m854.03,832.01c2.99,2.41,3.74,6.96,1.68,10.14-2.06,3.18-6.14,3.78-9.11,1.36-2.97-2.41-3.71-6.94-1.67-10.11,2.05-3.18,6.12-3.8,9.1-1.4Z"/>
  <polygon fill="#d7d7d6" points="728.57 935.88 916.23 941.23 990.46 878.92 1174.01 880.14 1173.78 875.85 988.95 874.88 914.8 937.26 729.49 932.23 643.62 856.48 527.08 856.61 490.52 893.43 142.74 888.59 142.85 891.47 491.56 896.8 528.16 860.02 642.77 860.04 728.57 935.88"/>
  <path fill="#d7d7d6" d="m1173.07,869.93c4.5.02,8.34,3.65,8.58,8.11.23,4.46-3.23,8.05-7.73,8.01-4.49-.04-8.3-3.67-8.53-8.11-.23-4.44,3.21-8.03,7.69-8.01Z"/>
  <path fill="#d7d7d6" d="m220.29,827.09c43-.64,88.14-2.26,134.84-6.35l.32-.03.26-.25c4.31-4.08,8.11-9.07,11.8-13.91,7.99-10.48,15.6-20.46,26.83-18.69,12.12-.34,23.8-1.17,35.28-1.96,18.77-1.3,36.78-2.54,56.19-2.07l-.03-3.34c-19.51-.45-37.55.82-56.37,2.15-11.46.81-23.2,1.64-35.03,2.01-12.22-1.91-20.19,8.57-28.57,19.59-3.55,4.66-7.2,9.46-11.25,13.36-77.28,6.86-150.38,6.95-216.65,7.03-41.45.05-82.61.1-121.85,1.78l.13,2.7c39.22-1.62,80.37-1.62,121.81-1.61,26.43,0,53.92,0,82.3-.41Z"/>
  <path fill="#d7d7d6" d="m16.08,822.75c-1.78.04-3.13,2.35-3.02,5.15s1.64,5.04,3.42,5c1.78-.04,3.14-2.34,3.03-5.15-.11-2.81-1.65-5.05-3.43-5Z"/>
  <path fill="#d7d7d6" d="m485.41,776.02c2.74,0,5.03,2.82,5.1,6.3.08,3.48-2.09,6.28-4.83,6.27-2.73-.01-5.01-2.83-5.08-6.3-.08-3.46,2.07-6.27,4.81-6.27Z"/>
  <path fill="#d7d7d6" d="m52.6,701.93l.37-.03.25-.42c9.06-15.58,20.48-29.94,31.65-43.98,3.27-4.12,6.53-8.21,9.71-12.31,106.2-11.11,221.8-23.21,354.01-37.02l-.14-3.29c-132.32,14.01-248.01,26.27-354.29,37.53l-.31.03-.24.31c-3.24,4.19-6.57,8.38-9.91,12.6-11.11,13.99-22.46,28.28-31.56,43.86-12.93,1.03-27.34,2.18-40.48,2.46l.04,2.69c13.29-.26,27.87-1.41,40.91-2.43Z"/>
  <path fill="#d7d7d6" d="m11.73,697.88c-1.78.08-3.17,2.4-3.11,5.19s1.54,5,3.32,4.93c1.78-.07,3.18-2.39,3.12-5.19-.06-2.8-1.55-5.01-3.33-4.93Z"/>
  <path fill="#d7d7d6" d="m448.01,600.38c2.65-.29,4.93,2.25,5.08,5.67.15,3.42-1.89,6.41-4.55,6.68-2.65.27-4.91-2.27-5.06-5.67-.15-3.4,1.88-6.39,4.53-6.68Z"/>
  <polygon fill="#d7d7d6" points="860.13 622.68 1376.17 579.25 1375.91 574.7 861.14 618.72 713.77 511.01 91.21 592.35 32.74 534.46 31.75 536.79 90.68 595.22 712.86 514.8 860.13 622.68"/>
  <path fill="#d7d7d6" d="m1375.1,568.46c5.1-.45,9.46,3.03,9.73,7.77.26,4.74-3.67,8.92-8.78,9.34-5.09.42-9.41-3.06-9.67-7.78-.26-4.71,3.64-8.89,8.73-9.33Z"/>
  <polygon fill="#d7d7d6" points="1150.92 443.03 1604.67 382.16 1604.39 377.3 1152.15 438.59 1024.62 361.38 562.39 438.69 480.69 377.75 479.21 380.7 561.59 442.29 1023.49 365.67 1150.92 443.03"/>
  <path fill="#d7d7d6" d="m1603.47,370.68c5.83-.8,10.81,2.64,11.11,7.7.3,5.05-4.21,9.78-10.04,10.55-5.81.77-10.75-2.68-11.04-7.71-.29-5.02,4.17-9.74,9.98-10.54Z"/>
  <polygon fill="#d7d7d6" points="1172.76 301.31 1504 242.17 1503.73 237.46 1174.01 296.78 1056.04 231.17 758.77 293.23 758.94 296.93 1054.88 235.55 1172.76 301.31"/>
  <path fill="#d7d7d6" d="m1502.86,231.05c5.51-1,10.21,2.16,10.49,7.06.28,4.9-3.97,9.67-9.48,10.64-5.49.97-10.16-2.2-10.44-7.07-.28-4.87,3.93-9.63,9.42-10.63Z"/>

  <polygon fill="#d7d7d6" points="1104.61 720.37 1352.18 709.11 1351.93 704.58 1105.81 716.11 957.69 611.77 955.56 615.12 1104.61 720.37"/>
  <path fill="#d7d7d6" d="m1351.14,698.36c5.03-.24,9.32,3.37,9.58,8.08.26,4.71-3.62,8.71-8.65,8.93-5.01.22-9.28-3.4-9.53-8.09-.26-4.68,3.59-8.68,8.6-8.92Z"/>
  <path fill="#d7d7d6" d="m16.81,924.42c50.18.85,101.25,2.5,156.29,5.1l-.09-2.92c-55.05-2.53-106.12-4.1-156.31-4.89l.12,2.7Z"/>
  <path fill="#d7d7d6" d="m173.07,933.59c2.08.07,3.67-2.33,3.55-5.36s-1.9-5.54-3.98-5.6c-2.07-.06-3.66,2.34-3.54,5.36s1.89,5.53,3.97,5.6Z"/>
  <polygon fill="#d7d7d6" points="943.91 549.63 1223.1 519.78 1222.87 515.44 944.99 545.54 745.45 408.88 743.62 412.12 943.91 549.63"/>
  <path fill="#d7d7d6" d="m1222.13,509.5c4.64-.51,8.62,2.73,8.86,7.25s-3.34,8.58-7.99,9.06c-4.63.49-8.57-2.76-8.81-7.26-.24-4.49,3.31-8.55,7.94-9.06Z"/>
</svg>